<svg width="50" height="42" viewBox="0 0 50 42" fill="none" xmlns="http://www.w3.org/2000/svg">
<g clip-path="url(#clip0_101_72)">
<g opacity="0.25">
<path d="M0 33.8542V35.4167C0 37.1354 1.875 38.5417 4.16667 38.5417H20.8333L25 41.6667L29.1667 38.5417L45.8333 38.5937C48.125 38.5937 50 37.1354 50 35.4167V33.8542H0Z" fill="black"/>
</g>
<path d="M21.0417 36.9792H4.16666C2.13541 36.9792 0.520828 35.3646 0.520828 33.3333V4.16668C0.520828 2.13543 2.13541 0.520844 4.16666 0.520844H45.8333C47.8646 0.520844 49.4792 2.13543 49.4792 4.16668V33.3333C49.4792 35.3646 47.8646 36.9792 45.8333 36.9792H28.9583L25 40.9375L21.0417 36.9792Z" fill="white"/>
<path d="M45.8333 1.04167C47.5521 1.04167 48.9583 2.44792 48.9583 4.16667V6.25V31.25V33.3333C48.9583 35.0521 47.5521 36.4583 45.8333 36.4583H29.1667H28.75L28.4375 36.7708L25 40.2083L21.5625 36.7708L21.25 36.4583H20.8333H4.16667C2.44792 36.4583 1.04167 35.0521 1.04167 33.3333V31.25V6.25V4.16667C1.04167 2.44792 2.44792 1.04167 4.16667 1.04167H45.8333ZM45.8333 0H4.16667C1.875 0 0 1.875 0 4.16667V6.25V31.25V33.3333C0 35.625 1.875 37.5 4.16667 37.5H20.8333L25 41.6667L29.1667 37.5H45.8333C48.125 37.5 50 35.625 50 33.3333V31.25V6.25V4.16667C50 1.875 48.125 0 45.8333 0Z" fill="#333333"/>
<path d="M26.0417 29.6875C36.9723 29.6875 45.8333 29.2211 45.8333 28.6458C45.8333 28.0705 36.9723 27.6042 26.0417 27.6042C15.111 27.6042 6.25 28.0705 6.25 28.6458C6.25 29.2211 15.111 29.6875 26.0417 29.6875Z" fill="#CCCCCC"/>
<path d="M29.1667 7.8125L28.125 10.9375H6.25001L4.16667 17.2396L5.72917 20.3125H28.6458L31.25 10.9375H32.2917L33.3333 7.8125H29.1667Z" fill="#F59C00"/>
<path d="M30.7292 11.9792L31.0937 10.9375H8.33333L7.8125 11.9792H30.7292Z" fill="#FDCA00"/>
<path d="M29.1667 7.8125L28.8021 8.85417H31.7708L30.7292 11.9792H29.6875L27.3958 20.3125H28.6458L31.25 10.9375H32.2917L33.3333 7.8125H29.1667Z" fill="#FDCA00"/>
<path d="M32.8125 13.0208H31.7708V20.3125H32.8125V13.0208Z" fill="black"/>
<path d="M38.5417 24.4792C39.1146 24.4792 39.5833 24.9479 39.5833 25.5208C39.5833 26.0938 39.1146 26.5625 38.5417 26.5625C37.9688 26.5625 37.5 26.0938 37.5 25.5208C37.5 24.9479 37.9688 24.4792 38.5417 24.4792ZM38.5417 22.3958C36.8229 22.3958 35.4167 23.8021 35.4167 25.5208C35.4167 27.2396 36.8229 28.6458 38.5417 28.6458C40.2604 28.6458 41.6667 27.2396 41.6667 25.5208C41.6667 23.8021 40.2604 22.3958 38.5417 22.3958Z" fill="black"/>
<path d="M14.5833 24.4792C15.1563 24.4792 15.625 24.9479 15.625 25.5208C15.625 26.0938 15.1563 26.5625 14.5833 26.5625C14.0104 26.5625 13.5417 26.0938 13.5417 25.5208C13.5417 24.9479 14.0104 24.4792 14.5833 24.4792ZM14.5833 22.3958C12.8646 22.3958 11.4583 23.8021 11.4583 25.5208C11.4583 27.2396 12.8646 28.6458 14.5833 28.6458C16.3021 28.6458 17.7083 27.2396 17.7083 25.5208C17.7083 23.8021 16.3021 22.3958 14.5833 22.3958Z" fill="black"/>
<path d="M14.5833 24.4792C15.1563 24.4792 15.625 24.9479 15.625 25.5208C15.625 26.0937 15.1563 26.5625 14.5833 26.5625C14.0104 26.5625 13.5417 26.0937 13.5417 25.5208C13.5417 24.9479 14.0104 24.4792 14.5833 24.4792ZM14.5833 23.4375C13.4375 23.4375 12.5 24.375 12.5 25.5208C12.5 26.6667 13.4375 27.6042 14.5833 27.6042C15.7292 27.6042 16.6667 26.6667 16.6667 25.5208C16.6667 24.375 15.7292 23.4375 14.5833 23.4375Z" fill="#666666"/>
<path d="M21.875 24.4792C22.4479 24.4792 22.9167 24.9479 22.9167 25.5208C22.9167 26.0938 22.4479 26.5625 21.875 26.5625C21.3021 26.5625 20.8333 26.0938 20.8333 25.5208C20.8333 24.9479 21.3021 24.4792 21.875 24.4792ZM21.875 22.3958C20.1563 22.3958 18.75 23.8021 18.75 25.5208C18.75 27.2396 20.1563 28.6458 21.875 28.6458C23.5938 28.6458 25 27.2396 25 25.5208C25 23.8021 23.5938 22.3958 21.875 22.3958Z" fill="black"/>
<path d="M21.875 24.4792C22.4479 24.4792 22.9167 24.9479 22.9167 25.5208C22.9167 26.0937 22.4479 26.5625 21.875 26.5625C21.3021 26.5625 20.8333 26.0937 20.8333 25.5208C20.8333 24.9479 21.3021 24.4792 21.875 24.4792ZM21.875 23.4375C20.7292 23.4375 19.7917 24.375 19.7917 25.5208C19.7917 26.6667 20.7292 27.6042 21.875 27.6042C23.0208 27.6042 23.9583 26.6667 23.9583 25.5208C23.9583 24.375 23.0208 23.4375 21.875 23.4375Z" fill="#666666"/>
<path d="M38.5417 24.4792C39.1146 24.4792 39.5833 24.9479 39.5833 25.5208C39.5833 26.0937 39.1146 26.5625 38.5417 26.5625C37.9688 26.5625 37.5 26.0937 37.5 25.5208C37.5 24.9479 37.9688 24.4792 38.5417 24.4792ZM38.5417 23.4375C37.3958 23.4375 36.4583 24.375 36.4583 25.5208C36.4583 26.6667 37.3958 27.6042 38.5417 27.6042C39.6875 27.6042 40.625 26.6667 40.625 25.5208C40.625 24.375 39.6875 23.4375 38.5417 23.4375Z" fill="#666666"/>
<path d="M32.8125 26.5625H27.6042C27.2917 26.5625 27.0833 26.3542 27.0833 26.0417V23.4375H33.3333V26.0417C33.3333 26.3542 33.125 26.5625 32.8125 26.5625Z" fill="#333333"/>
<path d="M44.7917 24.4792V17.1875C44.7917 16.6146 44.3229 16.1458 43.75 16.1458L41.6667 11.9792C41.6667 11.4062 41.1979 10.9375 40.625 10.9375H36.4583H35.4167C34.8438 10.9375 34.375 11.4062 34.375 11.9792V13.0208L33.3333 14.0625V19.2708V23.4375H35.4167L36.4583 22.3958H38.5417H40.625L41.6667 23.4375L42.7083 24.4792H44.7917ZM36.4583 16.1458V11.9792H40.625L42.7083 16.1458H36.4583Z" fill="#FDCA00"/>
<path d="M42.7083 23.4375L43.75 24.4792H42.7083L41.6667 23.4375L40.625 22.3958H41.6667L42.7083 23.4375ZM41.6667 11.9792H40.625L42.7083 16.1458H43.75L41.6667 11.9792ZM34.375 14.0625L35.4167 13.0208V10.9375C34.8438 10.9375 34.375 11.4062 34.375 11.9792V13.0208L33.3333 14.0625V19.2708V23.4375H34.375V19.2708V14.0625Z" fill="#F59C00"/>
<path d="M45.3125 26.5625H43.2292C42.9167 26.5625 42.7083 26.3542 42.7083 26.0417V24.4792H45.3125C45.625 24.4792 45.8333 24.6875 45.8333 25V26.0417C45.8333 26.3542 45.625 26.5625 45.3125 26.5625Z" fill="#333333"/>
<path d="M33.3333 20.3125H8.33334V21.875H33.3333V20.3125Z" fill="#333333"/>
<path d="M33.3333 21.875H9.375V23.4375H33.3333V21.875Z" fill="#FDCA00"/>
<path d="M38.5417 17.1875H36.4583V18.2292H38.5417V17.1875Z" fill="#333333"/>
<path d="M25.5208 13.0208L23.9583 18.75H26.0417L27.6042 13.0208H25.5208Z" fill="#FDCA00"/>
<path d="M18.75 18.75H20.8333L22.3958 13.0208H20.3125L18.75 18.75Z" fill="#FDCA00"/>
<path d="M13.5417 18.75H15.625L17.1875 13.0208H15.1042L13.5417 18.75Z" fill="#FDCA00"/>
<path d="M8.33334 18.75H10.4167L11.9792 13.0208H9.89584L8.33334 18.75Z" fill="#FDCA00"/>
<path d="M7.81251 10.9375H8.85418L5.72918 20.3125L5.20834 19.2708L7.81251 10.9375Z" fill="#F2F2F2"/>
</g>
<defs>
<clipPath id="clip0_101_72">
<rect width="50" height="41.6667" fill="white"/>
</clipPath>
</defs>
</svg>
