<?xml version="1.0" encoding="utf-8"?>
<!-- Generator: Adobe Illustrator 17.1.0, SVG Export Plug-In . SVG Version: 6.00 Build 0)  -->
<!DOCTYPE svg PUBLIC "-//W3C//DTD SVG 1.1//EN" "http://www.w3.org/Graphics/SVG/1.1/DTD/svg11.dtd">
<svg version="1.1" id="Слой_2" xmlns="http://www.w3.org/2000/svg" xmlns:xlink="http://www.w3.org/1999/xlink" x="0px" y="0px"
	 viewBox="0 0 80 80" style="enable-background:new 0 0 80 80;" xml:space="preserve">
<g id="многоцелевой">
	<ellipse style="fill:#CCCCCC;" cx="40" cy="57" rx="40" ry="2"/>
	<path style="fill:#F59C00;" d="M80,57h-4.1c-1.1,0-1.9-0.9-1.9-1.9V45h0.6c0.8,0,1.5,0.5,1.8,1.3L80,57z"/>
	<g>
		<path d="M58,49c1.1,0,2,0.9,2,2s-0.9,2-2,2c-1.1,0-2-0.9-2-2S56.9,49,58,49 M58,45c-3.3,0-6,2.7-6,6s2.7,6,6,6c3.3,0,6-2.7,6-6
			S61.3,45,58,45L58,45z"/>
		<path d="M12,49c1.1,0,2,0.9,2,2s-0.9,2-2,2c-1.1,0-2-0.9-2-2S10.9,49,12,49 M12,45c-3.3,0-6,2.7-6,6s2.7,6,6,6c3.3,0,6-2.7,6-6
			S15.3,45,12,45L12,45z"/>
		<path style="fill:#666666;" d="M12,49c1.1,0,2,0.9,2,2s-0.9,2-2,2s-2-0.9-2-2S10.9,49,12,49 M12,47c-2.2,0-4,1.8-4,4s1.8,4,4,4
			s4-1.8,4-4S14.2,47,12,47L12,47z"/>
		<path d="M26,49c1.1,0,2,0.9,2,2s-0.9,2-2,2c-1.1,0-2-0.9-2-2S24.9,49,26,49 M26,45c-3.3,0-6,2.7-6,6s2.7,6,6,6c3.3,0,6-2.7,6-6
			S29.3,45,26,45L26,45z"/>
		<path style="fill:#666666;" d="M26,49c1.1,0,2,0.9,2,2s-0.9,2-2,2s-2-0.9-2-2S24.9,49,26,49 M26,47c-2.2,0-4,1.8-4,4s1.8,4,4,4
			s4-1.8,4-4S28.2,47,26,47L26,47z"/>
		<path style="fill:#666666;" d="M58,49c1.1,0,2,0.9,2,2s-0.9,2-2,2s-2-0.9-2-2S56.9,49,58,49 M58,47c-2.2,0-4,1.8-4,4s1.8,4,4,4
			s4-1.8,4-4S60.2,47,58,47L58,47z"/>
	</g>
	<path style="fill:#F59C00;" d="M44.1,21H38h-2H10H8H1.9C0.9,21,0,21.9,0,22.9V26l2,2v13h6h2h26h2h6V28l2-2v-3.1
		C46,21.9,45.1,21,44.1,21z"/>
	<polygon style="fill:#1A1A1A;" points="34,21 34,30 24,30 24,21 22,21 22,30 12,30 12,21 10,21 10,41 12,41 12,32 22,32 22,41 
		24,41 24,32 34,32 34,41 36,41 36,32 36,30 36,21 	"/>
	<g>
		<polygon style="fill:#FDCA00;" points="12,23 20,23 20,30 22,30 22,23 22,21 12,21 		"/>
		<path style="fill:#FDCA00;" d="M0,23h8v18h2V23v-2H2C0.9,21,0,21.9,0,23L0,23z"/>
		<polygon style="fill:#FDCA00;" points="24,23 32,23 32,30 34,30 34,23 34,21 24,21 		"/>
		<polygon style="fill:#FDCA00;" points="12,34 20,34 20,41 22,41 22,34 22,32 12,32 		"/>
		<polygon style="fill:#FDCA00;" points="24,34 32,34 32,41 34,41 34,34 34,32 24,32 		"/>
		<path style="fill:#FDCA00;" d="M36,21v2h8v2l-2,2v14h2V28l2-2v-3c0-1.1-0.9-2-2-2H36z"/>
	</g>
	<path style="fill:#333333;" d="M47,53H37c-0.6,0-1-0.4-1-1v-5h12v5C48,52.6,47.6,53,47,53z"/>
	<path style="fill:#FDCA00;" d="M70,49V35c0-1.1-0.9-2-2-2h0l-4-8v0c0-1.1-0.9-2-2-2h-8h-2c-1.1,0-2,0.9-2,2v2l-2,2v10v8h4l2-2h4h4
		l2,2l2,2H70z M54,33v-8h8l4,8H54z"/>
	<path style="fill:#F59C00;" d="M66,47l2,2h-2l-2-2l-2-2h2L66,47z M64,25h-2l4,8h2L64,25z M50,29l2-2v-4h0c-1.1,0-2,0.9-2,2v2l-2,2
		v10v8h2v-8V29z"/>
	<path style="fill:#333333;" d="M72,53h-5c-0.6,0-1-0.4-1-1v-3h6c0.6,0,1,0.4,1,1v2C73,52.6,72.6,53,72,53z"/>
	<rect y="41" style="fill:#333333;" width="48" height="3"/>
	<rect x="2" y="44" style="fill:#FDCA00;" width="46" height="3"/>
	<rect x="54" y="35" style="fill:#333333;" width="4" height="2"/>
	<rect x="73" y="50" width="1" height="2"/>
</g>
</svg>
