<svg width="50" height="42" viewBox="0 0 50 42" fill="none" xmlns="http://www.w3.org/2000/svg">
<g clip-path="url(#clip0_101_107)">
<g opacity="0.25">
<path d="M0 33.8542V35.4167C0 37.1354 1.875 38.5417 4.16667 38.5417H20.8333L25 41.6667L29.1667 38.5417L45.8333 38.5937C48.125 38.5937 50 37.1354 50 35.4167V33.8542H0Z" fill="black"/>
</g>
<path d="M21.0417 36.9792H4.16667C2.13542 36.9792 0.520836 35.3646 0.520836 33.3333V4.16668C0.520836 2.13543 2.13542 0.520844 4.16667 0.520844H45.8333C47.8646 0.520844 49.4792 2.13543 49.4792 4.16668V33.3333C49.4792 35.3646 47.8646 36.9792 45.8333 36.9792H28.9583L25 40.9375L21.0417 36.9792Z" fill="white"/>
<path d="M45.8333 1.04167C47.5521 1.04167 48.9583 2.44792 48.9583 4.16667V6.25V31.25V33.3333C48.9583 35.0521 47.5521 36.4583 45.8333 36.4583H29.1667H28.75L28.4375 36.7708L25 40.2083L21.5625 36.7708L21.25 36.4583H20.8333H4.16667C2.44792 36.4583 1.04167 35.0521 1.04167 33.3333V31.25V6.25V4.16667C1.04167 2.44792 2.44792 1.04167 4.16667 1.04167H45.8333ZM45.8333 0H4.16667C1.875 0 0 1.875 0 4.16667V6.25V31.25V33.3333C0 35.625 1.875 37.5 4.16667 37.5H20.8333L25 41.6667L29.1667 37.5H45.8333C48.125 37.5 50 35.625 50 33.3333V31.25V6.25V4.16667C50 1.875 48.125 0 45.8333 0Z" fill="#333333"/>
<path d="M21.3542 33.3333C30.8466 33.3333 38.5417 32.867 38.5417 32.2917C38.5417 31.7164 30.8466 31.25 21.3542 31.25C11.8618 31.25 4.16666 31.7164 4.16666 32.2917C4.16666 32.867 11.8618 33.3333 21.3542 33.3333Z" fill="#CCCCCC"/>
<path d="M28.125 22.9167H7.29166V26.0417H28.125V22.9167Z" fill="#FDCA00"/>
<path d="M10.4167 26.0416C11.5625 26.0416 12.5 26.9791 12.5 28.125C12.5 29.2708 11.5625 30.2083 10.4167 30.2083C9.27083 30.2083 8.33333 29.2708 8.33333 28.125C8.33333 26.9791 9.27083 26.0416 10.4167 26.0416ZM10.4167 23.9583C8.125 23.9583 6.25 25.8333 6.25 28.125C6.25 30.4166 8.125 32.2916 10.4167 32.2916C12.7083 32.2916 14.5833 30.4166 14.5833 28.125C14.5833 25.8333 12.7083 23.9583 10.4167 23.9583Z" fill="black"/>
<path d="M28.125 26.0416C29.2708 26.0416 30.2083 26.9791 30.2083 28.125C30.2083 29.2708 29.2708 30.2083 28.125 30.2083C26.9792 30.2083 26.0417 29.2708 26.0417 28.125C26.0417 26.9791 26.9792 26.0416 28.125 26.0416ZM28.125 23.9583C25.8333 23.9583 23.9583 25.8333 23.9583 28.125C23.9583 30.4166 25.8333 32.2916 28.125 32.2916C30.4167 32.2916 32.2917 30.4166 32.2917 28.125C32.2917 25.8333 30.4167 23.9583 28.125 23.9583Z" fill="black"/>
<path d="M10.4167 29.1666C10.992 29.1666 11.4583 28.7003 11.4583 28.125C11.4583 27.5497 10.992 27.0833 10.4167 27.0833C9.84137 27.0833 9.375 27.5497 9.375 28.125C9.375 28.7003 9.84137 29.1666 10.4167 29.1666Z" fill="#CCCCCC"/>
<path d="M10.4167 26.0417C11.5625 26.0417 12.5 26.9792 12.5 28.125C12.5 29.2708 11.5625 30.2083 10.4167 30.2083C9.27083 30.2083 8.33333 29.2708 8.33333 28.125C8.33333 26.9792 9.27083 26.0417 10.4167 26.0417ZM10.4167 25C8.69791 25 7.29166 26.4062 7.29166 28.125C7.29166 29.8437 8.69791 31.25 10.4167 31.25C12.1354 31.25 13.5417 29.8437 13.5417 28.125C13.5417 26.4062 12.1354 25 10.4167 25Z" fill="#666666"/>
<path d="M28.125 26.0417C29.2708 26.0417 30.2083 26.9792 30.2083 28.125C30.2083 29.2708 29.2708 30.2083 28.125 30.2083C26.9792 30.2083 26.0417 29.2708 26.0417 28.125C26.0417 26.9792 26.9792 26.0417 28.125 26.0417ZM28.125 25C26.4062 25 25 26.4062 25 28.125C25 29.8437 26.4062 31.25 28.125 31.25C29.8437 31.25 31.25 29.8437 31.25 28.125C31.25 26.4062 29.8437 25 28.125 25Z" fill="#666666"/>
<path d="M28.125 29.1666C28.7003 29.1666 29.1667 28.7003 29.1667 28.125C29.1667 27.5497 28.7003 27.0833 28.125 27.0833C27.5497 27.0833 27.0833 27.5497 27.0833 28.125C27.0833 28.7003 27.5497 29.1666 28.125 29.1666Z" fill="#CCCCCC"/>
<path d="M4.16666 21.3541V22.3958C4.16666 22.7083 4.375 22.9166 4.6875 22.9166H29.6875C30 22.9166 30.2083 22.7083 30.2083 22.3958V21.3541C30.2083 21.0416 30 20.8333 29.6875 20.8333H4.6875C4.375 20.8333 4.16666 21.0416 4.16666 21.3541Z" fill="#333333"/>
<path d="M23.3854 9.375H14.1146C13.8021 9.375 13.5417 9.63542 13.5417 9.94792V10.3646C13.5417 10.6771 13.8021 10.9375 14.1146 10.9375H14.5833V20.8333H23.9583V9.94792C23.9583 9.63542 23.6979 9.375 23.3854 9.375ZM18.75 11.4583V18.2292C18.75 18.5417 18.4896 18.8021 18.1771 18.8021H16.6667C16.3542 18.8021 16.0937 18.5417 16.0937 18.2292V11.4583C15.9896 11.5625 16.3021 11.0417 16.6667 10.8854H18.1771C18.4896 10.8854 18.75 11.1458 18.75 11.4583ZM21.9271 18.75H20.3646C20.0521 18.75 19.7917 18.4896 19.7917 18.1771V11.4583C19.7917 11.1458 20.0521 10.8854 20.3646 10.8854H21.9271C22.2396 10.8854 22.5 11.1458 22.5 11.4583V18.2292C22.1875 18.5937 21.7708 18.9062 21.9271 18.75Z" fill="black"/>
<path d="M34.375 7.29166H31.7708V6.24999L34.375 5.72916V7.29166Z" fill="#333333"/>
<path d="M44.7917 6.24999H42.7083V4.68749L44.7917 4.16666V6.24999Z" fill="#333333"/>
<path d="M31.25 9.89581L42.1875 8.33331L44.7917 5.20831L31.25 6.77081V9.89581Z" fill="#FDCA00"/>
<path d="M31.25 9.89581V6.77081L28.125 7.81248L31.25 9.89581Z" fill="#F59C00"/>
<path d="M14.5833 20.8333H5.20833L7.29166 16.6667H14.5833V20.8333Z" fill="#FDCA00"/>
<path d="M15.3125 25.2604L16.875 27.1875C17.0833 27.4479 17.3958 27.6042 17.7083 27.6042H20.8333C21.1458 27.6042 21.4583 27.4479 21.6667 27.1875L23.2292 25.2604C23.3854 25.0521 23.4375 24.8437 23.4375 24.5833V22.9167H15.1042V24.6354C15.1042 24.8958 15.2083 25.1042 15.3125 25.2604Z" fill="#F59C00"/>
<path d="M42.1875 21.3541C42.7628 21.3541 43.2292 20.8878 43.2292 20.3125C43.2292 19.7372 42.7628 19.2708 42.1875 19.2708C41.6122 19.2708 41.1458 19.7372 41.1458 20.3125C41.1458 20.8878 41.6122 21.3541 42.1875 21.3541Z" fill="#333333"/>
<path d="M33.3333 16.6146V20.5208C33.3333 20.5729 33.3333 20.625 33.3854 20.6771L34.375 23.2812C34.4271 23.4375 34.5312 23.5417 34.7396 23.5937L37.3958 24.375C37.6042 24.4271 37.8125 24.375 37.9687 24.2708L41.5625 20.9896C41.8229 20.7812 41.7708 20.4167 41.4583 20.2083L34.2187 16.0937C33.8021 16.0417 33.3333 16.25 33.3333 16.6146Z" fill="#F59C00"/>
<path d="M28.125 7.8125L23.9583 14.0625V20.8333H24.4792L31.25 9.89583L28.125 7.8125Z" fill="#FDCA00"/>
<path d="M44.7917 5.26041L42.1875 8.33332L41.6667 19.7917H42.7083L45.8333 7.86457L44.7917 5.26041Z" fill="#FDCA00"/>
<path d="M44.7917 5.20831L42.1875 8.33331L45.8333 7.86456L44.7917 5.20831Z" fill="#F59C00"/>
<path d="M14.5833 16.6667H13.5417V20.8333H14.5833V16.6667Z" fill="#F59C00"/>
</g>
<defs>
<clipPath id="clip0_101_107">
<rect width="50" height="41.6667" fill="white"/>
</clipPath>
</defs>
</svg>
