<svg width="36" height="44" viewBox="0 0 36 44" fill="none" xmlns="http://www.w3.org/2000/svg">
    <g clip-path="url(#clip0_202_8668)">
        <path fill-rule="evenodd" clip-rule="evenodd" d="M19.3155 43.5065C18.5619 44.1645 17.4381 44.1645 16.6845 43.5065C5.62262 33.8474 0 25.4135 0 18C0 7.50133 8.19411 0 18 0C27.8059 0 36 7.50133 36 18C36 25.4135 30.3774 33.8474 19.3155 43.5065Z" fill="#32DAFF"/>
    </g>
    <path d="M7.2 21.8H13.2V27.8C13.2 28.1183 13.3264 28.4235 13.5515 28.6485C13.7765 28.8736 14.0817 29 14.4 29H21.6C21.9183 29 22.2235 28.8736 22.4485 28.6485C22.6736 28.4235 22.8 28.1183 22.8 27.8V21.8H28.8C29.1183 21.8 29.4235 21.6736 29.6485 21.4485C29.8736 21.2235 30 20.9183 30 20.6V13.4C30 13.0817 29.8736 12.7765 29.6485 12.5515C29.4235 12.3264 29.1183 12.2 28.8 12.2H22.8V6.2C22.8 5.88174 22.6736 5.57652 22.4485 5.35147C22.2235 5.12643 21.9183 5 21.6 5H14.4C14.0817 5 13.7765 5.12643 13.5515 5.35147C13.3264 5.57652 13.2 5.88174 13.2 6.2V12.2H7.2C6.88174 12.2 6.57652 12.3264 6.35147 12.5515C6.12643 12.7765 6 13.0817 6 13.4V20.6C6 20.9183 6.12643 21.2235 6.35147 21.4485C6.57652 21.6736 6.88174 21.8 7.2 21.8ZM8.4 14.6H14.4C14.7183 14.6 15.0235 14.4736 15.2485 14.2485C15.4736 14.0235 15.6 13.7183 15.6 13.4V7.4H20.4V13.4C20.4 13.7183 20.5264 14.0235 20.7515 14.2485C20.9765 14.4736 21.2817 14.6 21.6 14.6H27.6V19.4H21.6C21.2817 19.4 20.9765 19.5264 20.7515 19.7515C20.5264 19.9765 20.4 20.2817 20.4 20.6V26.6H15.6V20.6C15.6 20.2817 15.4736 19.9765 15.2485 19.7515C15.0235 19.5264 14.7183 19.4 14.4 19.4H8.4V14.6Z" fill="white"/>
    <defs>
        <clipPath id="clip0_202_8668">
            <rect width="36" height="44" rx="18" fill="white"/>
        </clipPath>
    </defs>
</svg>
