<svg width="64" height="65" viewBox="0 0 64 65" fill="none" xmlns="http://www.w3.org/2000/svg">
<path fill-rule="evenodd" clip-rule="evenodd" d="M32 10.8977C31.2636 10.8977 30.6667 11.4947 30.6667 12.231C30.6667 12.9674 31.2636 13.5644 32 13.5644H37.8426L41.176 20.231H23.4907L22.1574 17.5644H22.6667C23.403 17.5644 24 16.9674 24 16.231C24 15.4947 23.403 14.8977 22.6667 14.8977H14.6667C13.9303 14.8977 13.3333 15.4947 13.3333 16.231C13.3333 16.9674 13.9303 17.5644 14.6667 17.5644H19.176L21.3466 21.9056L17.5737 27.7699C15.9083 26.8948 14.012 26.3997 12 26.3997C5.37258 26.3997 0 31.7722 0 38.3997C0 45.0271 5.37258 50.3997 12 50.3997C18.0047 50.3997 22.9794 45.9892 23.8611 40.231H30.5091L32.1407 43.4943C32.4701 44.1529 33.2709 44.4199 33.9296 44.0906C34.5882 43.7612 34.8552 42.9604 34.5259 42.3017L32.5993 38.4486L42.8683 23.6156L45.2864 28.452C42.0968 30.6088 40 34.2594 40 38.3997C40 45.0271 45.3726 50.3997 52 50.3997C58.6274 50.3997 64 45.0271 64 38.3997C64 31.7722 58.6274 26.3997 52 26.3997C50.4651 26.3997 48.9975 26.6878 47.6484 27.213L39.8592 11.6348C39.6334 11.183 39.1717 10.8977 38.6667 10.8977H32ZM46.4924 30.8638L50.8074 39.494C51.1368 40.1526 51.9376 40.4196 52.5963 40.0903C53.2549 39.761 53.5219 38.9601 53.1926 38.3014L48.8479 29.612C49.8325 29.2588 50.8938 29.0663 52 29.0663C57.1547 29.0663 61.3333 33.245 61.3333 38.3997C61.3333 43.5543 57.1547 47.733 52 47.733C46.8453 47.733 42.6667 43.5543 42.6667 38.3997C42.6667 35.3049 44.1729 32.5619 46.4924 30.8638ZM30.5259 34.3017L31.2392 35.7283L40.1219 22.8977H23.8791L19.7825 29.2652C22.1653 31.2973 23.7432 34.2453 23.9714 37.5644H29.1758L28.1407 35.4943C27.8114 34.8356 28.0784 34.0347 28.737 33.7054C29.3957 33.3761 30.1966 33.6431 30.5259 34.3017ZM18.3228 31.5342C19.9819 33.0629 21.0855 35.1854 21.2965 37.5644H14.4432L18.3228 31.5342ZM16.1234 30.0242L10.8787 38.1763C10.6147 38.5866 10.5959 39.1082 10.8296 39.5364C11.0633 39.9646 11.5122 40.231 12 40.231H21.1537C20.3026 44.5088 16.5278 47.733 12 47.733C6.84534 47.733 2.66667 43.5543 2.66667 38.3997C2.66667 33.245 6.84534 29.0663 12 29.0663C13.4802 29.0663 14.88 29.4109 16.1234 30.0242Z" fill="black"/>
</svg>
