<?xml version="1.0" encoding="utf-8"?>
<!-- Generator: Adobe Illustrator 17.1.0, SVG Export Plug-In . SVG Version: 6.00 Build 0)  -->
<!DOCTYPE svg PUBLIC "-//W3C//DTD SVG 1.1//EN" "http://www.w3.org/Graphics/SVG/1.1/DTD/svg11.dtd">
<svg version="1.1" id="Слой_2" xmlns="http://www.w3.org/2000/svg" xmlns:xlink="http://www.w3.org/1999/xlink" x="0px" y="0px"
	 viewBox="0 0 80 80" style="enable-background:new 0 0 80 80;" xml:space="preserve">
<g id="беларус">
	<ellipse style="fill:#CCCCCC;" cx="39.5" cy="62" rx="28.5" ry="2"/>
	<rect x="54" y="26" style="fill:#333333;" width="2" height="12"/>
	<polygon style="fill:#333333;" points="56.6,53 42,53 42,44 59.6,44 	"/>
	<path style="fill:#FDCA00;" d="M60.3,45.8L47.6,44l-1-8l22,4.8c0.5,0.1,0.9,0.6,0.7,1.2l-1.6,6.3c-0.1,0.4-0.5,0.7-0.9,0.7h-3.3
		l-1.3-1.9C61.9,46.4,61.1,45.9,60.3,45.8z"/>
	<path d="M58.6,48c-3.9,0-7,3.1-7,7s3.1,7,7,7s7-3.1,7-7S62.5,48,58.6,48z M58.6,59c-2.2,0-4-1.8-4-4s1.8-4,4-4s4,1.8,4,4
		S60.8,59,58.6,59z"/>
	<path style="fill:#666666;" d="M58.6,52c1.7,0,3,1.3,3,3s-1.3,3-3,3s-3-1.3-3-3S57,52,58.6,52 M58.6,50c-2.8,0-5,2.2-5,5s2.2,5,5,5
		s5-2.2,5-5S61.4,50,58.6,50L58.6,50z"/>
	<g>
		<path style="fill:#FFFFFF;" d="M58.6,52c-1.7,0-3,1.3-3,3s1.3,3,3,3s3-1.3,3-3S60.3,52,58.6,52z"/>
	</g>
	<g>
		<path style="fill:#FDCA00;" d="M58.6,53c-1.1,0-2,0.9-2,2s0.9,2,2,2c1.1,0,2-0.9,2-2S59.7,53,58.6,53z"/>
	</g>
	<path d="M23.6,42c-5.5,0-10,4.5-10,10s4.5,10,10,10c5.2,0,9.4-3.9,10-9c0-0.3,0-0.7,0-1C33.6,46.5,29.1,42,23.6,42z M23.6,57
		c-2.8,0-5-2.2-5-5s2.2-5,5-5s5,2.2,5,5S26.4,57,23.6,57z"/>
	<path style="fill:#666666;" d="M23.6,47c2.8,0,5,2.2,5,5s-2.2,5-5,5s-5-2.2-5-5S20.8,47,23.6,47 M23.6,44c-4.4,0-8,3.6-8,8
		s3.6,8,8,8s8-3.6,8-8S28,44,23.6,44L23.6,44z"/>
	<g>
		<path style="fill:#FDCA00;" d="M23.6,49c-1.7,0-3,1.3-3,3s1.3,3,3,3s3-1.3,3-3S25.3,49,23.6,49z"/>
	</g>
	<polygon points="17.6,36 19.6,18 45.6,18 49,45 49,54 38.6,54 31.6,37 	"/>
	<path style="fill:#F59C00;" d="M31.6,36l-17-1l-4,10l2.6,0.9c2.1-3.6,6-6.1,10.4-6.1c6.6,0,12,5.4,12,12c0,0.6-0.1,1.2-0.2,1.8
		l1.2,0.4h4L31.6,36z"/>
	<path style="fill:#FFFFFF;" d="M21.5,20.9L20.7,32c0,0.5,0.4,1,0.9,1.1l6.9,0.8c0.6,0.1,1.1-0.4,1.1-1V21c0-0.6-0.5-1-1-1h-6.1
		C22,20,21.6,20.4,21.5,20.9z"/>
	<path style="fill:#FFFFFF;" d="M43.4,41h-4.6c-0.8,0-1.5-0.4-1.8-1.1l-4.2-8.5c-0.1-0.3-0.2-0.6-0.2-0.9V23c0-1.1,0.9-2,2-2h7.2
		c1,0,1.9,0.8,2,1.8l1.6,16C45.5,40,44.6,41,43.4,41z"/>
	<path style="fill:#F59C00;" d="M47.6,18h-30v0c0-1.1,0.9-2,2-2h26C46.7,16,47.6,16.9,47.6,18L47.6,18z"/>
	<path d="M47.8,57.5c-0.7,0-1.2-0.5-1.2-1.2c0-9.9,6.8-11.3,10.8-11.3h5c0.7,0,1.2,0.3,1.2,1s-0.5,1-1.2,1h-5
		c-5.6,0-8.4,3.2-8.4,9.2C49,56.8,48.5,57.5,47.8,57.5z"/>
</g>
</svg>
