<?xml version="1.0" encoding="utf-8"?>
<!-- Generator: Adobe Illustrator 17.1.0, SVG Export Plug-In . SVG Version: 6.00 Build 0)  -->
<!DOCTYPE svg PUBLIC "-//W3C//DTD SVG 1.1//EN" "http://www.w3.org/Graphics/SVG/1.1/DTD/svg11.dtd">
<svg version="1.1" id="Слой_2" xmlns="http://www.w3.org/2000/svg" xmlns:xlink="http://www.w3.org/1999/xlink" x="0px" y="0px"
	 viewBox="0 0 80 80" style="enable-background:new 0 0 80 80;" xml:space="preserve">
<g id="бульдозер">
	<ellipse style="fill:#CCCCCC;" cx="39" cy="61" rx="33" ry="2"/>
	<rect x="8" y="43" style="fill:#F59C00;" width="51" height="7"/>
	<path d="M53,45H15c-4.4,0-8,3.6-8,8s3.6,8,8,8h38c4.4,0,8-3.6,8-8S57.4,45,53,45z"/>
	<path style="fill:#FDCA00;" d="M15,59c-3.3,0-6-2.7-6-6s2.7-6,6-6h38c3.3,0,6,2.7,6,6s-2.7,6-6,6H15z"/>
	<circle style="fill:#333333;" cx="15" cy="53" r="3"/>
	<circle style="fill:#333333;" cx="53" cy="53" r="3"/>
	<path style="fill:#333333;" d="M60,44H7c-0.6,0-1-0.4-1-1v-2c0-0.6,0.4-1,1-1h53c0.6,0,1,0.4,1,1v2C61,43.6,60.6,44,60,44z"/>
	<polygon points="33,40 10,40 12,17 31,17 33,30 	"/>
	<path style="fill:#F59C00;" d="M60,40H33V30h26.6c1.3,0,2.2,1.2,2,2.4L60,40z"/>
	<path style="fill:#FDCA00;" d="M57,40H33v-8h24.7c0.7,0,1.1,0.6,1,1.2L57,40z"/>
	<rect x="44" y="25" width="2" height="5"/>
	<rect x="43" y="21" style="fill:#333333;" width="4" height="4"/>
	<polygon style="fill:#FFFFFF;" points="20,34 14,34 15,21 20,21 	"/>
	<polygon style="fill:#FFFFFF;" points="31,38 22,38 22,21 30,21 31,30 	"/>
	<path style="fill:#FDCA00;" d="M74,59h-8.1c-1,0-1.9-0.9-1.9-2V37h3.3c0.9,0,1.6,0.6,1.8,1.5L74,59z"/>
	<rect x="21" y="52" style="fill:#333333;" width="26" height="2"/>
	<path style="fill:#333333;" d="M23,49c0,0.6-0.4,1-1,1s-1-0.4-1-1s0.4-1,1-1S23,48.4,23,49z M46,48c-0.6,0-1,0.4-1,1s0.4,1,1,1
		s1-0.4,1-1S46.6,48,46,48z M38,48c-0.6,0-1,0.4-1,1s0.4,1,1,1s1-0.4,1-1S38.6,48,38,48z M30,48c-0.6,0-1,0.4-1,1s0.4,1,1,1
		s1-0.4,1-1S30.6,48,30,48z"/>
	<path style="fill:#333333;" d="M23,57c0,0.6-0.4,1-1,1s-1-0.4-1-1s0.4-1,1-1S23,56.4,23,57z M46,56c-0.6,0-1,0.4-1,1s0.4,1,1,1
		s1-0.4,1-1S46.6,56,46,56z M38,56c-0.6,0-1,0.4-1,1s0.4,1,1,1s1-0.4,1-1S38.6,56,38,56z M30,56c-0.6,0-1,0.4-1,1s0.4,1,1,1
		s1-0.4,1-1S30.6,56,30,56z"/>
	<rect x="53" y="52" width="15" height="2"/>
	<polygon style="fill:#F59C00;" points="68,49 51,30 51,28 68,47 	"/>
	<circle style="fill:#F59C00;" cx="51" cy="29" r="2"/>
</g>
</svg>
