<svg width="64" height="65" viewBox="0 0 64 65" fill="none" xmlns="http://www.w3.org/2000/svg">
<path fill-rule="evenodd" clip-rule="evenodd" d="M29.3334 44.4088C35.2244 44.4088 40 39.6331 40 33.7421C40 27.8511 35.2244 23.0754 29.3334 23.0754C23.4423 23.0754 18.6667 27.8511 18.6667 33.7421C18.6667 39.6331 23.4423 44.4088 29.3334 44.4088ZM29.3334 41.7421C33.7517 41.7421 37.3334 38.1604 37.3334 33.7421C37.3334 29.3238 33.7517 25.7421 29.3334 25.7421C24.9151 25.7421 21.3334 29.3238 21.3334 33.7421C21.3334 38.1604 24.9151 41.7421 29.3334 41.7421Z" fill="black"/>
<path fill-rule="evenodd" clip-rule="evenodd" d="M7.66036 27.0839C4.1363 27.2608 1.33337 30.1741 1.33337 33.7421C1.33337 37.3101 4.1363 40.2234 7.66036 40.4003C10.5045 49.6695 19.1319 56.4088 29.3334 56.4088C41.8518 56.4088 52 46.2606 52 33.7421C52 31.4236 51.6515 29.1845 51.0034 27.0754H58.6667C59.4031 27.0754 60 26.4785 60 25.7421V12.4088C60 11.6724 59.4031 11.0754 58.6667 11.0754H29.3334C19.1319 11.0754 10.5045 17.8147 7.66036 27.0839ZM9.33337 33.7421C9.33337 22.6964 18.2877 13.7421 29.3334 13.7421H57.3334V24.4088H49.116C48.6726 24.4088 48.2582 24.6292 48.0104 24.9969C47.7625 25.3646 47.7137 25.8314 47.8801 26.2424C48.8169 28.5566 49.3334 31.0874 49.3334 33.7421C49.3334 44.7878 40.3791 53.7421 29.3334 53.7421C18.2877 53.7421 9.33337 44.7878 9.33337 33.7421ZM6.99629 29.8691C6.77961 31.1276 6.66671 32.4217 6.66671 33.7421C6.66671 35.0625 6.77961 36.3566 6.99629 37.6151C5.27297 37.1698 4.00004 35.6046 4.00004 33.7421C4.00004 31.8796 5.27297 30.3144 6.99629 29.8691Z" fill="black"/>
</svg>
