<?xml version="1.0" encoding="utf-8"?>
<!-- Generator: Adobe Illustrator 17.1.0, SVG Export Plug-In . SVG Version: 6.00 Build 0)  -->
<!DOCTYPE svg PUBLIC "-//W3C//DTD SVG 1.1//EN" "http://www.w3.org/Graphics/SVG/1.1/DTD/svg11.dtd">
<svg version="1.1" id="Слой_2" xmlns="http://www.w3.org/2000/svg" xmlns:xlink="http://www.w3.org/1999/xlink" x="0px" y="0px"
	 viewBox="0 0 80 80" style="enable-background:new 0 0 80 80;" xml:space="preserve">
<g id="лаповый">
	<rect x="8" y="47" style="fill:#FDCA00;" width="38" height="6"/>
	<ellipse style="fill:#CCCCCC;" cx="40" cy="65" rx="38" ry="2"/>
	<g>
		<path d="M14,53c2.2,0,4,1.8,4,4c0,2.2-1.8,4-4,4c-2.2,0-4-1.8-4-4C10,54.8,11.8,53,14,53 M14,49c-4.4,0-8,3.6-8,8c0,4.4,3.6,8,8,8
			c4.4,0,8-3.6,8-8C22,52.6,18.4,49,14,49L14,49z"/>
	</g>
	<g>
		<circle style="fill:#CCCCCC;" cx="14" cy="57" r="2"/>
	</g>
	<g>
		<circle style="fill:#CCCCCC;" cx="46" cy="57" r="2"/>
	</g>
	<g>
		<path d="M46,53c2.2,0,4,1.8,4,4c0,2.2-1.8,4-4,4c-2.2,0-4-1.8-4-4C42,54.8,43.8,53,46,53 M46,49c-4.4,0-8,3.6-8,8c0,4.4,3.6,8,8,8
			s8-3.6,8-8C54,52.6,50.4,49,46,49L46,49z"/>
	</g>
	<path d="M45.8,21H23c-0.5,0-1,0.4-1,1v2c0,0.5,0.4,1,1,1h0c0.5,0,1,0.4,1,1v17l0,0h17.2c0.5,0,0.9-0.3,1-0.8l4.5-20
		C46.9,21.6,46.4,21,45.8,21z M32,26v15c0,0.5-0.4,1-1,1h-2c-0.5,0-1-0.4-1-1V26c0-0.5,0.4-1,1-1h2C31.6,25,32,25.4,32,26z M37.2,42
		H35c-0.5,0-1-0.4-1-1V26c0-0.5,0.4-1,1-1h5.8c0.6,0,1.1,0.6,1,1.2l-3.6,15C38.1,41.7,37.7,42,37.2,42z"/>
	<path style="fill:#F59C00;" d="M24,47H4V34c0-0.6,0.4-1,1-1h9.8c0.7,0,1.4,0.4,1.7,1L24,47z"/>
	<path style="fill:#FDCA00;" d="M24,47H8v-9c0-0.6,0.4-1,1-1h15V47z"/>
	<path style="fill:#4D4D4D;" d="M2,44v2c0,0.6,0.4,1,1,1h48c0.6,0,1-0.4,1-1v-2c0-0.6-0.4-1-1-1H3C2.4,43,2,43.4,2,44z"/>
	<path style="fill:#FDCA00;" d="M62.5,54.9l-62-34.4C0.2,20.3,0,20,0,19.6V16c0-0.8,0.8-1.2,1.5-0.9l62,34.4
		c0.3,0.2,0.5,0.5,0.5,0.9V54C64,54.8,63.2,55.2,62.5,54.9z"/>
	<path style="fill:#F59C00;" d="M67.7,63.7l-5.4-5.8c-0.2-0.2-0.3-0.5-0.3-0.8v-6c0-0.9,0.9-1.4,1.6-0.9l6.3,5.1
		c0.1,0.1,0.1,0.1,0.2,0.1l9.2,4c0.4,0.2,0.6,0.6,0.6,1v2.5c0,0.6-0.4,1.1-1,1.1H68.4C68.1,64,67.9,63.9,67.7,63.7z"/>
	<path d="M35,55H25c-0.6,0-1-0.4-1-1v-7h12v7C36,54.6,35.6,55,35,55z"/>
	<path style="fill:#666666;" d="M14,53c2.2,0,4,1.8,4,4s-1.8,4-4,4s-4-1.8-4-4S11.8,53,14,53 M14,51c-3.3,0-6,2.7-6,6
		c0,3.3,2.7,6,6,6c3.3,0,6-2.7,6-6C20,53.7,17.3,51,14,51L14,51z"/>
	<path style="fill:#666666;" d="M46,53c2.2,0,4,1.8,4,4s-1.8,4-4,4s-4-1.8-4-4S43.8,53,46,53 M46,51c-3.3,0-6,2.7-6,6
		c0,3.3,2.7,6,6,6c3.3,0,6-2.7,6-6C52,53.7,49.3,51,46,51L46,51z"/>
	<polygon style="fill:#F59C00;" points="64,56 0,20 0,18 64,54 	"/>
</g>
</svg>
