<?xml version="1.0" encoding="utf-8"?>
<!-- Generator: Adobe Illustrator 17.1.0, SVG Export Plug-In . SVG Version: 6.00 Build 0)  -->
<!DOCTYPE svg PUBLIC "-//W3C//DTD SVG 1.1//EN" "http://www.w3.org/Graphics/SVG/1.1/DTD/svg11.dtd">
<svg version="1.1" id="Слой_2" xmlns="http://www.w3.org/2000/svg" xmlns:xlink="http://www.w3.org/1999/xlink" x="0px" y="0px"
	 viewBox="0 0 80 80" style="enable-background:new 0 0 80 80;" xml:space="preserve">
<g id="самосвал">
	<ellipse style="fill:#CCCCCC;" cx="42" cy="59" rx="38" ry="2"/>
	<polygon style="fill:#F59C00;" points="48,19 46,25 4,25 0,37.1 3,43 47,43 52,25 54,25 56,19 	"/>
	<g>
		<polygon style="fill:#FDCA00;" points="51,27 51.7,25 8,25 7,27 		"/>
		<polygon style="fill:#FDCA00;" points="48,19 47.3,21 53,21 51,27 49,27 44.6,43 47,43 52,25 54,25 56,19 		"/>
	</g>
	<g>
		<rect x="53" y="29" width="2" height="14"/>
	</g>
	<g>
		<path d="M66,51c1.1,0,2,0.9,2,2s-0.9,2-2,2c-1.1,0-2-0.9-2-2S64.9,51,66,51 M66,47c-3.3,0-6,2.7-6,6s2.7,6,6,6c3.3,0,6-2.7,6-6
			S69.3,47,66,47L66,47z"/>
		<path d="M20,51c1.1,0,2,0.9,2,2s-0.9,2-2,2c-1.1,0-2-0.9-2-2S18.9,51,20,51 M20,47c-3.3,0-6,2.7-6,6s2.7,6,6,6c3.3,0,6-2.7,6-6
			S23.3,47,20,47L20,47z"/>
		<path style="fill:#666666;" d="M20,51c1.1,0,2,0.9,2,2s-0.9,2-2,2s-2-0.9-2-2S18.9,51,20,51 M20,49c-2.2,0-4,1.8-4,4s1.8,4,4,4
			s4-1.8,4-4S22.2,49,20,49L20,49z"/>
		<path d="M34,51c1.1,0,2,0.9,2,2s-0.9,2-2,2c-1.1,0-2-0.9-2-2S32.9,51,34,51 M34,47c-3.3,0-6,2.7-6,6s2.7,6,6,6c3.3,0,6-2.7,6-6
			S37.3,47,34,47L34,47z"/>
		<path style="fill:#666666;" d="M34,51c1.1,0,2,0.9,2,2s-0.9,2-2,2s-2-0.9-2-2S32.9,51,34,51 M34,49c-2.2,0-4,1.8-4,4s1.8,4,4,4
			s4-1.8,4-4S36.2,49,34,49L34,49z"/>
		<path style="fill:#666666;" d="M66,51c1.1,0,2,0.9,2,2s-0.9,2-2,2s-2-0.9-2-2S64.9,51,66,51 M66,49c-2.2,0-4,1.8-4,4s1.8,4,4,4
			s4-1.8,4-4S68.2,49,66,49L66,49z"/>
	</g>
	<path style="fill:#333333;" d="M55,55H45c-0.6,0-1-0.4-1-1v-5h12v5C56,54.6,55.6,55,55,55z"/>
	<path style="fill:#FDCA00;" d="M78,51V37c0-1.1-0.9-2-2-2h0l-4-8v0c0-1.1-0.9-2-2-2h-8h-2c-1.1,0-2,0.9-2,2v2l-2,2v10v8h4l2-2h4h4
		l2,2l2,2H78z M62,35v-8h8l4,8H62z"/>
	<path style="fill:#F59C00;" d="M74,49l2,2h-2l-2-2l-2-2h2L74,49z M72,27h-2l4,8h2L72,27z M58,31l2-2v-4h0c-1.1,0-2,0.9-2,2v2l-2,2
		v10v8h2v-8V31z"/>
	<path style="fill:#333333;" d="M79,55h-4c-0.6,0-1-0.4-1-1v-3h5c0.6,0,1,0.4,1,1v2C80,54.6,79.6,55,79,55z"/>
	<rect x="8" y="43" style="fill:#333333;" width="48" height="3"/>
	<rect x="10" y="46" style="fill:#FDCA00;" width="46" height="3"/>
	<rect x="62" y="37" style="fill:#333333;" width="4" height="2"/>
	<g>
		<polygon style="fill:#FDCA00;" points="41,29 38,40 42,40 45,29 		"/>
		<polygon style="fill:#FDCA00;" points="28,40 32,40 35,29 31,29 		"/>
		<polygon style="fill:#FDCA00;" points="18,40 22,40 25,29 21,29 		"/>
		<polygon style="fill:#FDCA00;" points="8,40 12,40 15,29 11,29 		"/>
	</g>
	<polygon style="fill:#F2F2F2;" points="7,25 9,25 3,43 2,41 	"/>
</g>
</svg>
