<svg width="36" height="44" viewBox="0 0 36 44" fill="none" xmlns="http://www.w3.org/2000/svg">
    <g clip-path="url(#clip0_6329_626)">
        <path fill-rule="evenodd" clip-rule="evenodd" d="M19.3155 43.5065C18.5619 44.1645 17.4381 44.1645 16.6845 43.5065C5.62262 33.8474 0 25.4135 0 18C0 7.50133 8.19411 0 18 0C27.8059 0 36 7.50133 36 18C36 25.4135 30.3774 33.8474 19.3155 43.5065Z" fill="#009969"/>
        <line x1="18" y1="23" x2="18" y2="15" stroke="white" stroke-width="2" stroke-linecap="round"/>
        <line x1="14" y1="23" x2="14" y2="15" stroke="white" stroke-width="2" stroke-linecap="round"/>
        <line x1="10" y1="23" x2="10" y2="15" stroke="white" stroke-width="2" stroke-linecap="round"/>
        <line x1="22" y1="23" x2="22" y2="15" stroke="white" stroke-width="2" stroke-linecap="round"/>
        <line x1="26" y1="23" x2="26" y2="15" stroke="white" stroke-width="2" stroke-linecap="round"/>
        <line x1="8" y1="24" x2="28" y2="24" stroke="white" stroke-width="2" stroke-linecap="round"/>
        <line x1="8" y1="14" x2="28" y2="14" stroke="white" stroke-width="2" stroke-linecap="round"/>
        <path d="M9 14L18 10L27 14" stroke="white" stroke-width="2"/>
    </g>
    <defs>
        <clipPath id="clip0_6329_626">
            <rect width="36" height="44" rx="18" fill="white"/>
        </clipPath>
    </defs>
</svg>
