<svg width="50" height="42" viewBox="0 0 50 42" fill="none" xmlns="http://www.w3.org/2000/svg">
<g clip-path="url(#clip0_101_139)">
<g opacity="0.25">
<path d="M0 33.8542V35.4167C0 37.1354 1.875 38.5417 4.16667 38.5417H20.8333L25 41.6667L29.1667 38.5417L45.8333 38.5937C48.125 38.5937 50 37.1354 50 35.4167V33.8542H0Z" fill="black"/>
</g>
<path d="M21.0417 36.9792H4.16667C2.13542 36.9792 0.520832 35.3646 0.520832 33.3333V4.16668C0.520832 2.13543 2.13542 0.520844 4.16667 0.520844H45.8333C47.8646 0.520844 49.4792 2.13543 49.4792 4.16668V33.3333C49.4792 35.3646 47.8646 36.9792 45.8333 36.9792H28.9583L25 40.9375L21.0417 36.9792Z" fill="white"/>
<path d="M45.8333 1.04167C47.5521 1.04167 48.9583 2.44792 48.9583 4.16667V6.25V31.25V33.3333C48.9583 35.0521 47.5521 36.4583 45.8333 36.4583H29.1667H28.75L28.4375 36.7708L25 40.2083L21.5625 36.7708L21.25 36.4583H20.8333H4.16667C2.44792 36.4583 1.04167 35.0521 1.04167 33.3333V31.25V6.25V4.16667C1.04167 2.44792 2.44792 1.04167 4.16667 1.04167H45.8333ZM45.8333 0H4.16667C1.875 0 0 1.875 0 4.16667V6.25V31.25V33.3333C0 35.625 1.875 37.5 4.16667 37.5H20.8333L25 41.6667L29.1667 37.5H45.8333C48.125 37.5 50 35.625 50 33.3333V31.25V6.25V4.16667C50 1.875 48.125 0 45.8333 0Z" fill="#333333"/>
<path d="M25 28.6458C36.5059 28.6458 45.8333 28.1795 45.8333 27.6042C45.8333 27.0289 36.5059 26.5625 25 26.5625C13.4941 26.5625 4.16666 27.0289 4.16666 27.6042C4.16666 28.1795 13.4941 28.6458 25 28.6458Z" fill="#CCCCCC"/>
<path d="M22.9167 22.9166H6.77083C6.45833 22.9166 6.25 22.7083 6.25 22.3958V20.8333H22.9167V22.9166Z" fill="#FDCA00"/>
<path d="M42.7083 22.9167H41.1458V24.4792H42.7083V22.9167Z" fill="#333333"/>
<path d="M10.9375 27.6042C12.951 27.6042 14.5833 25.9719 14.5833 23.9583C14.5833 21.9448 12.951 20.3125 10.9375 20.3125C8.92396 20.3125 7.29166 21.9448 7.29166 23.9583C7.29166 25.9719 8.92396 27.6042 10.9375 27.6042Z" fill="black"/>
<path d="M10.9375 21.3542C9.47916 21.3542 8.33333 22.5 8.33333 23.9583C8.33333 25.4167 9.47916 26.5625 10.9375 26.5625C12.3958 26.5625 13.5417 25.4167 13.5417 23.9583C13.5417 22.5 12.3958 21.3542 10.9375 21.3542Z" fill="#666666"/>
<path d="M10.9375 25.7812C11.9443 25.7812 12.7604 24.9651 12.7604 23.9583C12.7604 22.9516 11.9443 22.1354 10.9375 22.1354C9.93073 22.1354 9.11458 22.9516 9.11458 23.9583C9.11458 24.9651 9.93073 25.7812 10.9375 25.7812Z" fill="white"/>
<path d="M10.9375 25C11.5128 25 11.9792 24.5336 11.9792 23.9583C11.9792 23.383 11.5128 22.9167 10.9375 22.9167C10.3622 22.9167 9.89583 23.383 9.89583 23.9583C9.89583 24.5336 10.3622 25 10.9375 25Z" fill="#FDCA00"/>
<path d="M19.2708 27.6042C21.2844 27.6042 22.9167 25.9719 22.9167 23.9583C22.9167 21.9448 21.2844 20.3125 19.2708 20.3125C17.2573 20.3125 15.625 21.9448 15.625 23.9583C15.625 25.9719 17.2573 27.6042 19.2708 27.6042Z" fill="black"/>
<path d="M19.2708 21.3542C17.8125 21.3542 16.6667 22.5 16.6667 23.9583C16.6667 25.4167 17.8125 26.5625 19.2708 26.5625C20.7292 26.5625 21.875 25.4167 21.875 23.9583C21.875 22.5 20.7292 21.3542 19.2708 21.3542Z" fill="#666666"/>
<path d="M19.2708 25.7812C20.2776 25.7812 21.0937 24.9651 21.0937 23.9583C21.0937 22.9516 20.2776 22.1354 19.2708 22.1354C18.2641 22.1354 17.4479 22.9516 17.4479 23.9583C17.4479 24.9651 18.2641 25.7812 19.2708 25.7812Z" fill="white"/>
<path d="M19.2708 25C19.8461 25 20.3125 24.5336 20.3125 23.9583C20.3125 23.383 19.8461 22.9167 19.2708 22.9167C18.6955 22.9167 18.2292 23.383 18.2292 23.9583C18.2292 24.5336 18.6955 25 19.2708 25Z" fill="#FDCA00"/>
<path d="M38.0208 27.6042C40.0344 27.6042 41.6667 25.9719 41.6667 23.9583C41.6667 21.9448 40.0344 20.3125 38.0208 20.3125C36.0073 20.3125 34.375 21.9448 34.375 23.9583C34.375 25.9719 36.0073 27.6042 38.0208 27.6042Z" fill="black"/>
<path d="M38.0208 21.3542C36.5625 21.3542 35.4167 22.5 35.4167 23.9583C35.4167 25.4167 36.5625 26.5625 38.0208 26.5625C39.4792 26.5625 40.625 25.4167 40.625 23.9583C40.625 22.5 39.4792 21.3542 38.0208 21.3542Z" fill="#666666"/>
<path d="M38.0208 25.7812C39.0276 25.7812 39.8437 24.9651 39.8437 23.9583C39.8437 22.9516 39.0276 22.1354 38.0208 22.1354C37.0141 22.1354 36.1979 22.9516 36.1979 23.9583C36.1979 24.9651 37.0141 25.7812 38.0208 25.7812Z" fill="white"/>
<path d="M38.0208 25C38.5961 25 39.0625 24.5336 39.0625 23.9583C39.0625 23.383 38.5961 22.9167 38.0208 22.9167C37.4455 22.9167 36.9792 23.383 36.9792 23.9583C36.9792 24.5336 37.4455 25 38.0208 25Z" fill="#FDCA00"/>
<path d="M31.25 26.5625H29.1146C28.5417 26.5625 28.125 26.0937 28.125 25.5729V20.3125H28.4375C28.8542 20.3125 29.2188 20.5729 29.375 20.9896L31.25 26.5625Z" fill="#F59C00"/>
<path d="M45.8333 27.0312L43.8542 27.0833C43.2292 27.0833 42.7083 26.5625 42.7083 25.9375V19.7917H43.0729C43.5937 19.7917 44.0104 20.1042 44.1667 20.5729L45.8333 27.0312Z" fill="#F59C00"/>
<path d="M22.9167 20.8333H4.63541C4.375 20.8333 4.16666 20.625 4.16666 20.3646V19.2708C4.16666 18.9583 4.375 18.75 4.63541 18.75H22.9167V20.8333Z" fill="#333333"/>
<path d="M16.6667 18.75H5.20833V16.1458C5.20833 15.5729 5.67708 15.1042 6.24999 15.1042H16.6667V18.75Z" fill="#F59C00"/>
<path d="M13.5417 10.9375H12.5V15.1042H13.5417V10.9375Z" fill="#FDCA00"/>
<path d="M13.5417 11.9791H12.5C12.1875 11.9791 11.9792 11.7708 11.9792 11.4583V10.4166C11.9792 10.1041 12.1875 9.89581 12.5 9.89581H13.5417C13.8542 9.89581 14.0625 10.1041 14.0625 10.4166V11.4583C14.0625 11.7708 13.8542 11.9791 13.5417 11.9791Z" fill="black"/>
<path d="M17.7083 8.85416H16.6667V18.75H17.7083V8.85416Z" fill="black"/>
<path d="M20.8333 8.85416H19.7917V18.75H20.8333V8.85416Z" fill="black"/>
<path d="M22.9167 18.75H21.875L23.4375 9.89581H24.4792L22.9167 18.75Z" fill="black"/>
<path d="M25 9.89582H16.6667V8.85416H23.9583C24.5312 8.85416 25 9.32291 25 9.89582Z" fill="black"/>
<path d="M41.1458 19.7916L27.0833 18.2291V16.1458L41.1458 17.7083V19.7916Z" fill="#FDCA00"/>
<path d="M22.9167 20.8333L27.0833 18.2291V16.1458L22.9167 18.75V20.8333Z" fill="#F59C00"/>
<path d="M33.9062 24.4792C33.9062 24.3229 33.8542 24.1146 33.8542 23.9583C33.8542 21.6667 35.7292 19.7917 38.0208 19.7917C39.2708 19.7917 40.3646 20.3646 41.1458 21.1979V19.7917C40.2604 19.1146 39.2187 18.75 38.0208 18.75C35.1562 18.75 32.8125 21.0937 32.8125 23.9583C32.8125 24.1146 32.8125 24.3229 32.8646 24.4792H33.9062Z" fill="#F59C00"/>
<path d="M29.1667 14.5833H28.125V22.3958H29.1667V14.5833Z" fill="#333333"/>
<path d="M28.6458 20.3125H27.6042V23.4375H28.6458V20.3125Z" fill="#333333"/>
<path d="M29.1667 15.625H27.6042V18.75H29.1667V15.625Z" fill="#333333"/>
<path d="M22.3958 16.6667H17.7083V18.75H22.3958V16.6667Z" fill="black"/>
</g>
<defs>
<clipPath id="clip0_101_139">
<rect width="50" height="41.6667" fill="white"/>
</clipPath>
</defs>
</svg>
