<svg width="34" height="34" viewBox="0 0 34 34" fill="none" xmlns="http://www.w3.org/2000/svg">
<path d="M26.9167 2.83334H7.08333C5.95616 2.83334 4.87516 3.2811 4.07813 4.07813C3.2811 4.87516 2.83333 5.95616 2.83333 7.08334V8.74084C2.83314 9.32583 2.95371 9.90458 3.1875 10.4408V10.5258C3.38765 10.9805 3.67114 11.3938 4.02333 11.7442L12.75 20.4142V29.75C12.7495 29.9907 12.8104 30.2277 12.9269 30.4384C13.0434 30.649 13.2117 30.8265 13.4158 30.9542C13.6413 31.0939 13.9014 31.1675 14.1667 31.1667C14.3884 31.1654 14.6068 31.112 14.8042 31.0108L20.4708 28.1775C20.7044 28.0598 20.9009 27.8797 21.0385 27.6572C21.1761 27.4346 21.2491 27.1783 21.25 26.9167V20.4142L29.92 11.7442C30.2722 11.3938 30.5557 10.9805 30.7558 10.5258V10.4408C31.0091 9.90878 31.1491 9.32986 31.1667 8.74084V7.08334C31.1667 5.95616 30.7189 4.87516 29.9218 4.07813C29.1248 3.2811 28.0438 2.83334 26.9167 2.83334ZM18.8275 18.8275C18.6962 18.9598 18.5923 19.1169 18.5218 19.2895C18.4514 19.462 18.4155 19.6469 18.4167 19.8333V26.0383L15.5833 27.455V19.8333C15.5845 19.6469 15.5486 19.462 15.4782 19.2895C15.4077 19.1169 15.3038 18.9598 15.1725 18.8275L7.66417 11.3333H26.3358L18.8275 18.8275ZM28.3333 8.5H5.66667V7.08334C5.66667 6.70761 5.81593 6.34728 6.08159 6.0816C6.34728 5.81593 6.70761 5.66667 7.08333 5.66667H26.9167C27.2924 5.66667 27.6528 5.81593 27.9184 6.0816C28.184 6.34728 28.3333 6.70761 28.3333 7.08334V8.5Z" fill="#333333"/>
</svg>
