<svg width="64" height="65" viewBox="0 0 64 65" fill="none" xmlns="http://www.w3.org/2000/svg">
<path fill-rule="evenodd" clip-rule="evenodd" d="M18.6667 27.0754C17.1939 27.0754 16 28.2693 16 29.742V35.0754C16 36.5481 17.1939 37.742 18.6667 37.742H45.3333C46.8061 37.742 48 36.5481 48 35.0754V29.742C48 28.2693 46.8061 27.0754 45.3333 27.0754H18.6667ZM18.6667 35.0754V29.742H45.3333V35.0754H18.6667Z" fill="black"/>
<path fill-rule="evenodd" clip-rule="evenodd" d="M56 32.231C56 45.4858 45.2548 56.231 32 56.231C18.7452 56.231 8 45.4858 8 32.231C8 18.9761 18.7452 8.23096 32 8.23096C45.2548 8.23096 56 18.9761 56 32.231ZM53.3333 32.231C53.3333 44.013 43.7821 53.5643 32 53.5643C20.2179 53.5643 10.6667 44.013 10.6667 32.231C10.6667 20.4489 20.2179 10.8976 32 10.8976C43.7821 10.8976 53.3333 20.4489 53.3333 32.231Z" fill="black"/>
</svg>
