<svg width="36" height="36" viewBox="0 0 36 36" fill="none" xmlns="http://www.w3.org/2000/svg">
<g clip-path="url(#clip0_102_21)">
<path d="M28 0H8C3.58172 0 0 3.58172 0 8V28C0 32.4183 3.58172 36 8 36H28C32.4183 36 36 32.4183 36 28V8C36 3.58172 32.4183 0 28 0Z" fill="#F1B022"/>
<path fill-rule="evenodd" clip-rule="evenodd" d="M15.4001 10C15.0321 10 14.7011 10.2241 14.5645 10.5657L12.7684 15.0559L8.77262 14.2567C7.59692 14.0216 6.5 14.9208 6.5 16.1198V22.9C6.5 23.3971 6.90294 23.8 7.4 23.8H9.64237C10.0211 24.9611 11.1126 25.8 12.4 25.8C13.6874 25.8 14.7789 24.961 15.1576 23.8H18.6424C19.0211 24.961 20.1126 25.8 21.4 25.8C23.0016 25.8 24.3 24.5016 24.3 22.9C24.3 22.014 23.9027 21.2209 23.2766 20.6889L22.9944 19.1216C24.4668 19.7436 25.5 21.2012 25.5 22.9C25.5 22.909 25.5001 22.9179 25.5004 22.9268V23.3C25.5004 23.8523 25.9481 24.3 26.5004 24.3H30.4004V22.9L26.9141 20.7967C26.2066 18.9431 24.5914 17.5379 22.6121 17.1246L21.2813 10.717C21.1945 10.2994 20.8266 10 20.4001 10H15.4001ZM13.3108 17L8.41961 16.0218C8.35773 16.0094 8.3 16.0567 8.3 16.1198V18.6574C9.36153 17.6313 10.807 17 12.4 17H13.3108ZM8.39909 22H9.64236C10.021 20.839 11.1125 20 12.4 20C13.6875 20 14.779 20.839 15.1576 22H18.6424C19.0135 20.8619 20.0696 20.0333 21.3238 20.001L21.1076 18.8H12.4C10.4448 18.8 8.80927 20.1686 8.39909 22ZM20.6723 16.6367L14.5635 15.4149L16.0094 11.8H19.6678L20.6723 16.6367ZM11.3 22.9C11.3 22.2925 11.7925 21.8 12.4 21.8C13.0075 21.8 13.5 22.2925 13.5 22.9C13.5 23.5075 13.0075 24 12.4 24C11.7925 24 11.3 23.5075 11.3 22.9ZM20.3 22.9C20.3 22.2925 20.7925 21.8 21.4 21.8C22.0075 21.8 22.5 22.2925 22.5 22.9C22.5 23.5075 22.0075 24 21.4 24C20.7925 24 20.3 23.5075 20.3 22.9Z" fill="white"/>
</g>
<defs>
<clipPath id="clip0_102_21">
<rect width="36" height="36" fill="white"/>
</clipPath>
</defs>
</svg>
