<svg width="36" height="44" viewBox="0 0 36 44" fill="none" xmlns="http://www.w3.org/2000/svg">
<g clip-path="url(#clip0_31_3362)">
<path fill-rule="evenodd" clip-rule="evenodd" d="M19.3155 43.5065C18.5619 44.1645 17.4381 44.1645 16.6845 43.5065C5.62262 33.8474 0 25.4135 0 18C0 7.50133 8.19411 0 18 0C27.8059 0 36 7.50133 36 18C36 25.4135 30.3774 33.8474 19.3155 43.5065Z" fill="#0FB73E"/>
<path d="M21.9609 18.2917C22.5938 18.5589 23.0624 18.9844 23.4375 19.5677C23.8126 20.151 24 20.7953 24 21.5C24 22.4723 23.672 23.2985 23.0156 23.9792C22.3593 24.6598 21.5626 25 20.625 25H16.125H9.375C8.43738 25 7.64074 24.6598 6.98438 23.9792C6.32801 23.2985 6 22.4723 6 21.5C6 20.7953 6.18738 20.151 6.5625 19.5677C6.93762 18.9844 7.44141 18.5589 8.07422 18.2917C7.74621 17.7083 7.62316 17.1068 7.70508 16.487C7.78699 15.8672 8.02746 15.3323 8.42578 14.8828C8.8241 14.4333 9.31066 14.1354 9.88477 13.9896C10.4589 13.8438 11.0389 13.9046 11.625 14.1719C11.7189 13.2724 12.088 12.5192 12.7324 11.9115C13.3768 11.3037 14.1327 11 15 11C15.8673 11 16.6232 11.3037 17.2676 11.9115C17.912 12.5192 18.2811 13.2724 18.375 14.1719C18.9611 13.9046 19.5411 13.8438 20.1152 13.9896C20.6893 14.1354 21.1759 14.4333 21.5742 14.8828C21.9725 15.3323 22.213 15.8672 22.2949 16.487C22.3768 17.1068 22.2657 17.7083 21.9609 18.2917Z" stroke="white" stroke-width="1.8" stroke-linejoin="round"/>
<path d="M19 13.5L22.8641 9.18605C23.0757 8.93798 23.4699 8.93798 23.6812 9.18605L27.545 13.7044C27.7587 13.954 27.8169 14.3179 27.6935 14.6306C27.5688 14.9483 27.2815 15.154 26.9626 15.154H25.9503L28.6879 18.6497C28.8922 18.9109 28.936 19.2655 28.8029 19.5747C28.6697 19.8847 28.3905 20.077 28.0748 20.077H27.0015L29.8008 23.5573C30.011 23.8185 30.0587 24.1762 29.9255 24.4904C29.7941 24.8 29.5051 25 29.1894 25H21" stroke="white" stroke-width="1.8" stroke-linejoin="round"/>
<line x1="14.9" y1="25" x2="14.9" y2="29" stroke="white" stroke-width="1.8"/>
<line x1="23.9" y1="25" x2="23.9" y2="29" stroke="white" stroke-width="1.8"/>
</g>
<defs>
<clipPath id="clip0_31_3362">
<rect width="36" height="44" rx="18" fill="white"/>
</clipPath>
</defs>
</svg>
