<svg width="64" height="65" viewBox="0 0 64 65" fill="none" xmlns="http://www.w3.org/2000/svg">
<path fill-rule="evenodd" clip-rule="evenodd" d="M58.8469 24.2312L42.6274 4.76807L32.1439 18.3349C30.5455 15.488 27.4974 13.5643 24 13.5643C19.2915 13.5643 15.3974 17.0508 14.7585 21.583C10.24 21.8789 6.66665 25.6376 6.66665 30.231C6.66665 31.3294 6.87152 32.3804 7.24446 33.3474C3.73984 35.0956 1.33331 38.7151 1.33331 42.8976C1.33331 48.7887 6.10894 53.5643 12 53.5643H22.6666V60.231H25.3333V53.5643H36C38.705 53.5643 41.1749 52.5574 43.0552 50.8979H45.3333V60.5688H48V50.8979H63.8942L54.5609 37.5646H61.2275L51.8943 24.2312H58.8469ZM45.2395 48.2312H58.7725L49.4391 34.8979H56.1058L46.7726 21.5645H53.1534L42.7059 9.02771L33.2018 21.3272C33.2161 21.4121 33.2294 21.4974 33.2415 21.5831C37.7599 21.8789 41.3333 25.6376 41.3333 30.231C41.3333 31.3294 41.1284 32.3804 40.7555 33.3474C44.2601 35.0956 46.6666 38.7151 46.6666 42.8976C46.6666 44.8406 46.1472 46.6622 45.2395 48.2312ZM30.3023 20.7183L30.2783 20.7493L30.3251 20.7855C30.4363 21.1187 30.522 21.4636 30.5797 21.8179C30.6369 22.1693 30.6666 22.53 30.6666 22.8976C30.6666 23.5082 30.5846 24.0996 30.4308 24.6614C31.1218 24.3837 31.8764 24.231 32.6666 24.231C32.8582 24.231 33.0476 24.2399 33.2346 24.2575C36.2819 24.5436 38.6666 27.1088 38.6666 30.231C38.6666 31.021 38.514 31.7753 38.2365 32.4661C37.8497 33.429 37.2206 34.2684 36.4245 34.9087C37.4916 34.9645 38.5034 35.2294 39.4196 35.6632C42.1272 36.9453 44 39.7028 44 42.8976C44 47.3159 40.4183 50.8976 36 50.8976H12C7.5817 50.8976 3.99998 47.3159 3.99998 42.8976C3.99998 39.7028 5.87276 36.9453 8.58041 35.6632C9.49658 35.2294 10.5083 34.9645 11.5755 34.9087C10.7794 34.2684 10.1502 33.429 9.76347 32.4661C9.486 31.7753 9.33331 31.021 9.33331 30.231C9.33331 27.1088 11.718 24.5436 14.7654 24.2575C14.9523 24.2399 15.1418 24.231 15.3333 24.231C16.1236 24.231 16.8781 24.3837 17.5691 24.6614C17.4154 24.0996 17.3333 23.5082 17.3333 22.8976C17.3333 22.53 17.3631 22.1693 17.4203 21.8179C17.9363 18.6494 20.6857 16.231 24 16.231C26.9187 16.231 29.3993 18.1066 30.3023 20.7183Z" fill="black"/>
</svg>
