<svg width="50" height="42" viewBox="0 0 50 42" fill="none" xmlns="http://www.w3.org/2000/svg">
<g clip-path="url(#clip0_101_38)">
<g opacity="0.25">
<path d="M0 33.8542V35.4167C0 37.1354 1.875 38.5417 4.16667 38.5417H20.8333L25 41.6667L29.1667 38.5417L45.8333 38.5937C48.125 38.5937 50 37.1354 50 35.4167V33.8542H0Z" fill="black"/>
</g>
<path d="M21.0417 36.9792H4.16667C2.13542 36.9792 0.520836 35.3646 0.520836 33.3333V4.16668C0.520836 2.13543 2.13542 0.520844 4.16667 0.520844H45.8333C47.8646 0.520844 49.4792 2.13543 49.4792 4.16668V33.3333C49.4792 35.3646 47.8646 36.9792 45.8333 36.9792H28.9583L25 40.9375L21.0417 36.9792Z" fill="white"/>
<path d="M45.8333 1.04167C47.5521 1.04167 48.9583 2.44792 48.9583 4.16667V6.25V31.25V33.3333C48.9583 35.0521 47.5521 36.4583 45.8333 36.4583H29.1667H28.75L28.4375 36.7708L25 40.2083L21.5625 36.7708L21.25 36.4583H20.8333H4.16667C2.44792 36.4583 1.04167 35.0521 1.04167 33.3333V31.25V6.25V4.16667C1.04167 2.44792 2.44792 1.04167 4.16667 1.04167H45.8333ZM45.8333 0H4.16667C1.875 0 0 1.875 0 4.16667V6.25V31.25V33.3333C0 35.625 1.875 37.5 4.16667 37.5H20.8333L25 41.6667L29.1667 37.5H45.8333C48.125 37.5 50 35.625 50 33.3333V31.25V6.25V4.16667C50 1.875 48.125 0 45.8333 0Z" fill="#333333"/>
<path d="M25 28.6458C36.5059 28.6458 45.8333 28.1795 45.8333 27.6042C45.8333 27.0289 36.5059 26.5625 25 26.5625C13.4941 26.5625 4.16666 27.0289 4.16666 27.6042C4.16666 28.1795 13.4941 28.6458 25 28.6458Z" fill="#CCCCCC"/>
<path d="M45.8333 27.6042H43.6979C43.125 27.6042 42.7083 27.1354 42.7083 26.6146V21.3542H43.0208C43.4375 21.3542 43.8021 21.6146 43.9583 22.0312L45.8333 27.6042Z" fill="#F59C00"/>
<path d="M34.375 23.4375C34.9479 23.4375 35.4167 23.9062 35.4167 24.4792C35.4167 25.0521 34.9479 25.5208 34.375 25.5208C33.8021 25.5208 33.3333 25.0521 33.3333 24.4792C33.3333 23.9062 33.8021 23.4375 34.375 23.4375ZM34.375 21.3542C32.6562 21.3542 31.25 22.7604 31.25 24.4792C31.25 26.1979 32.6562 27.6042 34.375 27.6042C36.0937 27.6042 37.5 26.1979 37.5 24.4792C37.5 22.7604 36.0937 21.3542 34.375 21.3542Z" fill="black"/>
<path d="M10.4167 23.4375C10.9896 23.4375 11.4583 23.9062 11.4583 24.4792C11.4583 25.0521 10.9896 25.5208 10.4167 25.5208C9.84375 25.5208 9.375 25.0521 9.375 24.4792C9.375 23.9062 9.84375 23.4375 10.4167 23.4375ZM10.4167 21.3542C8.69791 21.3542 7.29166 22.7604 7.29166 24.4792C7.29166 26.1979 8.69791 27.6042 10.4167 27.6042C12.1354 27.6042 13.5417 26.1979 13.5417 24.4792C13.5417 22.7604 12.1354 21.3542 10.4167 21.3542Z" fill="black"/>
<path d="M10.4167 23.4375C10.9896 23.4375 11.4583 23.9062 11.4583 24.4791C11.4583 25.0521 10.9896 25.5208 10.4167 25.5208C9.84374 25.5208 9.37499 25.0521 9.37499 24.4791C9.37499 23.9062 9.84374 23.4375 10.4167 23.4375ZM10.4167 22.3958C9.27083 22.3958 8.33333 23.3333 8.33333 24.4791C8.33333 25.625 9.27083 26.5625 10.4167 26.5625C11.5625 26.5625 12.5 25.625 12.5 24.4791C12.5 23.3333 11.5625 22.3958 10.4167 22.3958Z" fill="#666666"/>
<path d="M17.7083 23.4375C18.2812 23.4375 18.75 23.9062 18.75 24.4792C18.75 25.0521 18.2812 25.5208 17.7083 25.5208C17.1354 25.5208 16.6667 25.0521 16.6667 24.4792C16.6667 23.9062 17.1354 23.4375 17.7083 23.4375ZM17.7083 21.3542C15.9896 21.3542 14.5833 22.7604 14.5833 24.4792C14.5833 26.1979 15.9896 27.6042 17.7083 27.6042C19.4271 27.6042 20.8333 26.1979 20.8333 24.4792C20.8333 22.7604 19.4271 21.3542 17.7083 21.3542Z" fill="black"/>
<path d="M17.7083 23.4375C18.2812 23.4375 18.75 23.9062 18.75 24.4791C18.75 25.0521 18.2812 25.5208 17.7083 25.5208C17.1354 25.5208 16.6667 25.0521 16.6667 24.4791C16.6667 23.9062 17.1354 23.4375 17.7083 23.4375ZM17.7083 22.3958C16.5625 22.3958 15.625 23.3333 15.625 24.4791C15.625 25.625 16.5625 26.5625 17.7083 26.5625C18.8542 26.5625 19.7917 25.625 19.7917 24.4791C19.7917 23.3333 18.8542 22.3958 17.7083 22.3958Z" fill="#666666"/>
<path d="M34.375 23.4375C34.9479 23.4375 35.4167 23.9062 35.4167 24.4791C35.4167 25.0521 34.9479 25.5208 34.375 25.5208C33.8021 25.5208 33.3333 25.0521 33.3333 24.4791C33.3333 23.9062 33.8021 23.4375 34.375 23.4375ZM34.375 22.3958C33.2292 22.3958 32.2917 23.3333 32.2917 24.4791C32.2917 25.625 33.2292 26.5625 34.375 26.5625C35.5208 26.5625 36.4583 25.625 36.4583 24.4791C36.4583 23.3333 35.5208 22.3958 34.375 22.3958Z" fill="#666666"/>
<path d="M27.1354 8.85416H23.9583H22.9167H9.375H8.33333H5.15625C4.63541 8.85416 4.16666 9.32291 4.16666 9.84374V11.4583L5.20833 12.5V19.2708H8.33333H9.375H22.9167H23.9583H27.0833V12.5L28.125 11.4583V9.84374C28.125 9.32291 27.6562 8.85416 27.1354 8.85416Z" fill="#F59C00"/>
<path d="M21.875 8.85416V13.5417H16.6667V8.85416H15.625V13.5417H10.4167V8.85416H9.375V19.2708H10.4167V14.5833H15.625V19.2708H16.6667V14.5833H21.875V19.2708H22.9167V14.5833V13.5417V8.85416H21.875Z" fill="#1A1A1A"/>
<path d="M10.4167 9.89582H14.5833V13.5417H15.625V9.89582V8.85416H10.4167V9.89582Z" fill="#FDCA00"/>
<path d="M4.16666 9.89582H8.33333V19.2708H9.375V9.89582V8.85416H5.20833C4.63541 8.85416 4.16666 9.32291 4.16666 9.89582Z" fill="#FDCA00"/>
<path d="M16.6667 9.89582H20.8333V13.5417H21.875V9.89582V8.85416H16.6667V9.89582Z" fill="#FDCA00"/>
<path d="M10.4167 15.625H14.5833V19.2708H15.625V15.625V14.5833H10.4167V15.625Z" fill="#FDCA00"/>
<path d="M16.6667 15.625H20.8333V19.2708H21.875V15.625V14.5833H16.6667V15.625Z" fill="#FDCA00"/>
<path d="M22.9167 8.85416V9.89582H27.0833V10.9375L26.0417 11.9792V19.2708H27.0833V12.5L28.125 11.4583V9.89582C28.125 9.32291 27.6562 8.85416 27.0833 8.85416H22.9167Z" fill="#FDCA00"/>
<path d="M28.6458 25.5208H23.4375C23.125 25.5208 22.9167 25.3125 22.9167 25V22.3958H29.1667V25C29.1667 25.3125 28.9583 25.5208 28.6458 25.5208Z" fill="#333333"/>
<path d="M40.625 23.4375V16.1458C40.625 15.5729 40.1562 15.1041 39.5833 15.1041L37.5 10.9375C37.5 10.3646 37.0312 9.89581 36.4583 9.89581H32.2917H31.25C30.6771 9.89581 30.2083 10.3646 30.2083 10.9375V11.9791L29.1667 13.0208V18.2291V22.3958H31.25L32.2917 21.3541H34.375H36.4583L37.5 22.3958L38.5417 23.4375H40.625ZM32.2917 15.1041V10.9375H36.4583L38.5417 15.1041H32.2917Z" fill="#FDCA00"/>
<path d="M38.5417 22.3958L39.5833 23.4375H38.5417L37.5 22.3958L36.4583 21.3541H37.5L38.5417 22.3958ZM37.5 10.9375H36.4583L38.5417 15.1041H39.5833L37.5 10.9375ZM30.2083 13.0208L31.25 11.9791V9.89581C30.6771 9.89581 30.2083 10.3646 30.2083 10.9375V11.9791L29.1667 13.0208V18.2291V22.3958H30.2083V18.2291V13.0208Z" fill="#F59C00"/>
<path d="M41.6667 25.5208H39.0625C38.75 25.5208 38.5417 25.3125 38.5417 25V23.4375H41.6667C41.9792 23.4375 42.1875 23.6458 42.1875 23.9583V25C42.1875 25.3125 41.9792 25.5208 41.6667 25.5208Z" fill="#333333"/>
<path d="M29.1667 19.2708H4.16666V20.8333H29.1667V19.2708Z" fill="#333333"/>
<path d="M29.1667 20.8333H5.20833V22.3958H29.1667V20.8333Z" fill="#FDCA00"/>
<path d="M34.375 16.1458H32.2917V17.1875H34.375V16.1458Z" fill="#333333"/>
<path d="M42.7083 23.9583H42.1875V25H42.7083V23.9583Z" fill="black"/>
</g>
<defs>
<clipPath id="clip0_101_38">
<rect width="50" height="41.6667" fill="white"/>
</clipPath>
</defs>
</svg>
