<svg width="25" height="44" viewBox="0 0 25 44" fill="none" xmlns="http://www.w3.org/2000/svg">
<g clip-path="url(#clip0_2_2)">
<path fill-rule="evenodd" clip-rule="evenodd" d="M13.4135 36.9351C12.8902 37.392 12.1098 37.392 11.5865 36.9351C3.9046 30.2274 0 24.3705 0 19.2222C0 11.9315 5.69035 6.72222 12.5 6.72222C19.3097 6.72222 25 11.9315 25 19.2222C25 24.3705 21.0954 30.2274 13.4135 36.9351Z" fill="#0FB73E"/>
<path fill-rule="evenodd" clip-rule="evenodd" d="M12.5 8.80556C18.253 8.80556 22.9167 13.4693 22.9167 19.2222C22.9167 24.9752 18.253 29.6389 12.5 29.6389C6.74703 29.6389 2.08333 24.9752 2.08333 19.2222C2.08333 13.4693 6.74703 8.80556 12.5 8.80556Z" fill="#0FB73E"/>
<path fill-rule="evenodd" clip-rule="evenodd" d="M6.00999 23.3721C5.79669 21.879 6.29881 20.3727 7.36528 19.3063L8.8384 17.8331C9.0825 17.589 9.47819 17.589 9.72229 17.8331L11.2936 19.4044L14.8693 15.8288C14.1812 14.7783 14.2986 13.3546 15.2217 12.4316L16.2038 11.4495C16.4478 11.2054 16.8436 11.2054 17.0876 11.4495L20.034 14.3958C20.2781 14.6399 20.2781 15.0356 20.034 15.2797L19.0519 16.2617C18.164 17.1496 16.813 17.2922 15.7765 16.6894L12.1775 20.2883L13.6507 21.7615C13.8947 22.0056 13.8947 22.4013 13.6507 22.6453L12.1775 24.1185C11.111 25.1849 9.60472 25.6871 8.11167 25.4737L6.73674 25.2774C6.46175 25.2381 6.24569 25.022 6.2064 24.747L6.00999 23.3721ZM8.24917 20.1901C7.4609 20.9783 7.08979 22.0917 7.24743 23.1953L7.37757 24.1062L8.28847 24.2363C9.39201 24.394 10.5054 24.0228 11.2936 23.2346L12.3249 22.2034L9.28035 19.1589L8.24917 20.1901ZM16.1056 13.3155C15.536 13.885 15.536 14.8083 16.1056 15.3778C16.6751 15.9474 17.5985 15.9474 18.168 15.3778L18.7081 14.8377L16.6458 12.7753L16.1056 13.3155Z" fill="white"/>
</g>
<defs>
<clipPath id="clip0_2_2">
<rect width="25" height="44" fill="white"/>
</clipPath>
</defs>
</svg>
