<svg width="36" height="36" viewBox="0 0 36 36" fill="none" xmlns="http://www.w3.org/2000/svg">
<rect width="36" height="36" rx="10" fill="#F1B022"/>
<g clip-path="url(#clip0_10_109)">
<path d="M28.752 13.4086L19.077 10.1761C18.3716 9.9413 17.6287 9.9413 16.923 10.1761L7.248 13.4086C6.50175 13.6581 6 14.378 6 15.2006C6 16.0233 6.50175 16.7431 7.248 16.9926L8.097 17.2761C8.00475 17.487 7.932 17.7076 7.88325 17.9387C7.48238 18.1492 7.2 18.5851 7.2 19.1002C7.2 19.5381 7.413 19.9066 7.71975 20.1422L6.76237 24.8088C6.67913 25.2147 6.96413 25.5998 7.34813 25.5998H9.45225C9.83625 25.5998 10.1213 25.2147 10.038 24.8088L9.08025 20.1422C9.38662 19.9066 9.6 19.5381 9.6 19.1002C9.6 18.6696 9.39413 18.3064 9.09638 18.07C9.13875 17.9257 9.20738 17.799 9.27825 17.6706L11.3359 18.358L10.8 22.9998C10.8 24.4355 14.0235 25.5998 18 25.5998C21.9765 25.5998 25.2 24.4359 25.2 22.9998L24.6645 18.358L28.752 16.9922C29.4986 16.7427 30 16.0229 30 15.2002C30 14.3776 29.4982 13.6581 28.752 13.4086ZM23.3415 22.6126C21.1027 24.002 14.8703 23.985 12.6589 22.6126L13.0826 18.9418L16.9234 20.2251C17.3415 20.3645 18.1324 20.5408 19.0774 20.2251L22.9182 18.9418L23.3415 22.6126ZM18.5471 18.3612C18.1931 18.4795 17.8065 18.4795 17.4525 18.3612L11.7983 16.4714L18.1098 15.1892C18.4358 15.1234 18.6502 14.7838 18.5891 14.4308C18.5284 14.0765 18.2107 13.8474 17.8894 13.9124L10.2476 15.4643C9.99862 15.5146 9.76762 15.6081 9.546 15.719L7.99462 15.1998L17.4529 12.0396C17.8069 11.9214 18.1935 11.9214 18.5475 12.0396L28.0058 15.201L18.5471 18.3612Z" fill="white"/>
</g>
<defs>
<clipPath id="clip0_10_109">
<rect width="24" height="16" fill="white" transform="translate(6 10)"/>
</clipPath>
</defs>
</svg>
