<svg width="36" height="36" viewBox="0 0 36 36" fill="none" xmlns="http://www.w3.org/2000/svg">
<g clip-path="url(#clip0_104_38)">
<path d="M28 0H8C3.58172 0 0 3.58172 0 8V28C0 32.4183 3.58172 36 8 36H28C32.4183 36 36 32.4183 36 28V8C36 3.58172 32.4183 0 28 0Z" fill="#133D6F"/>
<path d="M30 16.125C30 11.3692 26.1308 7.5 21.375 7.5C19.0866 7.5 16.9309 8.38692 15.3052 9.99736C13.7277 11.5601 12.8267 13.6278 12.7549 15.8388C12.3806 16.5105 12.1314 17.2611 12.0396 18.059C11.7796 18.0197 11.5159 18 11.25 18C8.35514 18 6 20.3551 6 23.25C6 26.1449 8.35514 28.5 11.25 28.5H24.75C27.6449 28.5 30 26.1449 30 23.25C30 22.0982 29.6269 21.0321 28.9955 20.1655C29.6536 18.9262 30 17.5403 30 16.125ZM21.375 9C25.3037 9 28.5 12.1963 28.5 16.125C28.5 17.1348 28.2865 18.126 27.8786 19.0366C27.0043 18.3857 25.9214 18 24.75 18C24.4841 18 24.2204 18.0197 23.9604 18.059C23.6168 15.0748 21.0748 12.75 18 12.75C16.7607 12.75 15.6081 13.1279 14.6509 13.7741C15.6283 11 18.2823 9 21.375 9ZM24.75 27H11.25C9.18225 27 7.5 25.3177 7.5 23.25C7.5 21.1823 9.18225 19.5 11.25 19.5C11.6814 19.5 12.1039 19.5723 12.5055 19.715C12.7418 19.799 13.0047 19.7592 13.2057 19.6089C13.4067 19.4586 13.5192 19.2178 13.5054 18.9673C13.5018 18.9006 13.5 18.8295 13.5 18.75C13.5 16.2687 15.5187 14.25 18 14.25C20.4813 14.25 22.5 16.2687 22.5 18.75C22.5 18.8295 22.4982 18.9006 22.4946 18.9673C22.4809 19.2178 22.5933 19.4586 22.7943 19.6089C22.9953 19.7592 23.2581 19.799 23.4945 19.715C23.8961 19.5723 24.3186 19.5 24.75 19.5C26.8177 19.5 28.5 21.1823 28.5 23.25C28.5 25.3177 26.8177 27 24.75 27Z" fill="white"/>
</g>
<defs>
<clipPath id="clip0_104_38">
<rect width="36" height="36" fill="white"/>
</clipPath>
</defs>
</svg>
