<?xml version="1.0" encoding="utf-8"?>
<!-- Generator: Adobe Illustrator 17.1.0, SVG Export Plug-In . SVG Version: 6.00 Build 0)  -->
<!DOCTYPE svg PUBLIC "-//W3C//DTD SVG 1.1//EN" "http://www.w3.org/Graphics/SVG/1.1/DTD/svg11.dtd">
<svg version="1.1" id="Слой_2" xmlns="http://www.w3.org/2000/svg" xmlns:xlink="http://www.w3.org/1999/xlink" x="0px" y="0px"
	 viewBox="0 0 80 80" style="enable-background:new 0 0 80 80;" xml:space="preserve">
<g id="газелька">
	<ellipse style="fill:#CCCCCC;" cx="40" cy="59" rx="40" ry="2"/>
	<path style="fill:#FDCA00;" d="M78,49l-1-5l1.1-0.1L77,42l-9-5L57.7,21.8c-0.4-0.5-1-0.8-1.6-0.8h-19L36,38v14h16c0-5,4-9,9-9
		s9,4,9,9h10v-3H78z M47,36.1c0,0.5-0.4,0.9-0.9,0.9h-4.1c-0.5,0-0.9-0.4-0.9-0.9L41.1,26c0-0.5,0.4-1,0.9-1h4.1
		c0.5,0,0.9,0.5,0.9,1L47,36.1z M63.1,37.9l-13.2-0.8c-0.5,0-0.9-0.4-0.9-0.9L49.1,26c0-0.5,0.4-1,0.9-1h6.5c0.3,0,0.6,0.2,0.8,0.5
		l6.5,11C64.4,37.1,63.9,37.9,63.1,37.9z"/>
	<rect x="3.3" y="46.4" style="fill:#F59C00;" width="1.3" height="4.2"/>
	<g>
		<path style="fill:#F59C00;" d="M78,49l-1-5l1.1-0.1L77,42l-9-5L57.7,21.8c-0.4-0.5-1-0.8-1.6-0.8h-19L37,23h19.1
			c0.6,0,1.2,0.3,1.6,0.8L67,38l8,5l2,9h3v-3H78z"/>
	</g>
	<rect y="36" style="fill:#FDCA00;" width="34" height="10"/>
	<g>
		<circle cx="61" cy="52" r="7"/>
		<path style="fill:#666666;" d="M61,47c-2.8,0-5,2.2-5,5s2.2,5,5,5s5-2.2,5-5S63.8,47,61,47L61,47z"/>
		<circle style="fill:#FFFFFF;" cx="61" cy="52" r="3.5"/>
		<circle style="fill:#FDCA00;" cx="61" cy="52" r="2"/>
	</g>
	<g>
		<circle cx="18" cy="52" r="7"/>
		<path style="fill:#808080;" d="M18,47c-2.8,0-5,2.2-5,5s2.2,5,5,5s5-2.2,5-5S20.8,47,18,47L18,47z"/>
		<circle style="fill:#FFFFFF;" cx="18" cy="52" r="3.5"/>
		<circle style="fill:#FDCA00;" cx="18" cy="52" r="2"/>
	</g>
	<path style="fill:#333333;" d="M47.1,21c0-1.1,0.9-2,1.9-2h1.2c1.1,0,1.9,0.9,1.9,2H47.1z"/>
	<rect x="49" y="39" style="fill:#333333;" width="4" height="2"/>
	<g>
		<path style="fill:#333333;" d="M5,46v6h4c0-2,0.9-4,2.3-6H5z"/>
		<path style="fill:#333333;" d="M24.7,46c1.4,2,2.3,4,2.3,6h9v-6H24.7z"/>
	</g>
	<path style="fill:#F59C00;" d="M18,41c-3.9,0-7.2,2-9.2,5h2.5c1.6-2,4-3,6.7-3s5,1,6.7,3h2.5C25.2,43,21.9,41,18,41z"/>
	<g>
		<path d="M11.3,46H8.8C7.7,48,7,50,7,52h2C9,50,9.9,48,11.3,46z"/>
		<path d="M24.7,46c1.4,2,2.3,4,2.3,6h2c0-2-0.7-4-1.8-6H24.7z"/>
	</g>
	<path style="fill:#F59C00;" d="M70.2,46c-2-3-5.4-5-9.2-5s-7.2,2-9.2,5c-1.1,1.7-1.8,4-1.8,6h2c0-2,0.9-4.4,2.3-6
		c1.6-1.8,4-3,6.7-3s5,1.2,6.7,3c1.4,1.6,2.3,4,2.3,6h2C72,50,71.3,47.7,70.2,46z"/>
	<rect y="34" style="fill:#333333;" width="34" height="2"/>
	<rect x="34" y="34" style="fill:#333333;" width="2" height="12"/>
</g>
</svg>
