<svg width="14" height="18" viewBox="0 0 14 18" fill="none" xmlns="http://www.w3.org/2000/svg">
<path d="M7.00001 9.08299C7.48601 9.08299 7.89934 8.91299 8.24001 8.57299C8.58001 8.23233 8.75001 7.81899 8.75001 7.33299C8.75001 6.84699 8.58001 6.43399 8.24001 6.09399C7.89934 5.75333 7.48601 5.58299 7.00001 5.58299C6.51401 5.58299 6.10067 5.75333 5.76001 6.09399C5.42001 6.43399 5.25001 6.84699 5.25001 7.33299C5.25001 7.81899 5.42001 8.23233 5.76001 8.57299C6.10067 8.91299 6.51401 9.08299 7.00001 9.08299ZM7.00001 14.854C8.63867 13.34 9.84701 11.972 10.625 10.75C11.403 9.52799 11.792 8.44466 11.792 7.49999C11.792 6.01399 11.3337 4.81599 10.417 3.90599C9.50034 2.99666 8.36134 2.54199 7.00001 2.54199C5.63867 2.54199 4.49967 2.99666 3.58301 3.90599C2.66634 4.81599 2.20801 6.01399 2.20801 7.49999C2.20801 8.44466 2.59701 9.52799 3.37501 10.75C4.15301 11.972 5.36134 13.34 7.00001 14.854ZM7.00001 17.479C4.72201 15.521 3.02067 13.7223 1.89601 12.083C0.770674 10.4443 0.208008 8.91666 0.208008 7.49999C0.208008 5.36133 0.888674 3.66699 2.25001 2.41699C3.61134 1.16699 5.19467 0.541992 7.00001 0.541992C8.80534 0.541992 10.3887 1.16699 11.75 2.41699C13.1113 3.66699 13.792 5.36133 13.792 7.49999C13.792 8.91666 13.2293 10.4443 12.104 12.083C10.9793 13.7223 9.27801 15.521 7.00001 17.479Z" fill="#333333"/>
</svg>
