<svg width="36" height="44" viewBox="0 0 36 44" fill="none" xmlns="http://www.w3.org/2000/svg">
<g clip-path="url(#clip0_30_3343)">
<path fill-rule="evenodd" clip-rule="evenodd" d="M19.3155 43.5065C18.5619 44.1645 17.4381 44.1645 16.6845 43.5065C5.62262 33.8474 0 25.4135 0 18C0 7.50133 8.19411 0 18 0C27.8059 0 36 7.50133 36 18C36 25.4135 30.3774 33.8474 19.3155 43.5065Z" fill="#F1B022"/>
<path d="M29.648 13.4086L19.1667 10.1761C18.4026 9.9413 17.5978 9.9413 16.8332 10.1761L6.352 13.4086C5.54356 13.6581 5 14.378 5 15.2006C5 16.0233 5.54356 16.7431 6.352 16.9926L7.27175 17.2761C7.17181 17.487 7.093 17.7076 7.04019 17.9387C6.60591 18.1492 6.3 18.5851 6.3 19.1002C6.3 19.5381 6.53075 19.9066 6.86306 20.1422L5.82591 24.8088C5.73572 25.2147 6.04447 25.5998 6.46047 25.5998H8.73994C9.15594 25.5998 9.46469 25.2147 9.3745 24.8088L8.33694 20.1422C8.66884 19.9066 8.9 19.5381 8.9 19.1002C8.9 18.6696 8.67697 18.3064 8.35441 18.07C8.40031 17.9257 8.47466 17.799 8.55144 17.6706L10.7805 18.358L10.2 22.9998C10.2 24.4355 13.6921 25.5998 18 25.5998C22.3079 25.5998 25.8 24.4359 25.8 22.9998L25.2199 18.358L29.648 16.9922C30.4568 16.7427 31 16.0229 31 15.2002C31 14.3775 30.4564 13.6581 29.648 13.4086ZM23.7866 22.6126C21.3613 24.002 14.6094 23.985 12.2138 22.6126L12.6728 18.9418L16.8337 20.2251C17.2866 20.3645 18.1434 20.5408 19.1672 20.2251L23.328 18.9418L23.7866 22.6126V22.6126ZM18.5927 18.3612C18.2092 18.4795 17.7904 18.4795 17.4069 18.3612L11.2814 16.4714L18.119 15.1892C18.4721 15.1234 18.7044 14.7838 18.6382 14.4308C18.5724 14.0765 18.2283 13.8474 17.8802 13.9124L9.60159 15.4643C9.33184 15.5146 9.08159 15.6081 8.8415 15.719L7.16084 15.1998L17.4073 12.0396C17.7908 11.9214 18.2096 11.9214 18.5931 12.0396L28.8396 15.201L18.5927 18.3612V18.3612Z" fill="white"/>
</g>
<defs>
<clipPath id="clip0_30_3343">
<rect width="36" height="44" rx="18" fill="white"/>
</clipPath>
</defs>
</svg>
