<svg width="64" height="65" viewBox="0 0 64 65" fill="none" xmlns="http://www.w3.org/2000/svg">
<path fill-rule="evenodd" clip-rule="evenodd" d="M42.4113 20.7151C39.5853 17.0547 39.8506 11.7771 43.2074 8.42036L45.2817 6.34609C45.8024 5.82539 46.6466 5.82539 47.1673 6.34609L58.481 17.6598C59.0017 18.1805 59.0017 19.0247 58.481 19.5454L56.4067 21.6197C53.1141 24.9123 47.9733 25.2305 44.3234 22.5743L29.1578 37.7399L35.6648 44.2469C36.1855 44.7676 36.1855 45.6119 35.6648 46.1325L28.1224 53.675C25.4516 56.3458 21.6792 57.6033 17.94 57.0691L10.0204 55.9378C9.43379 55.854 8.97286 55.393 8.88906 54.8064L7.75769 46.8868C7.22353 43.1477 8.481 39.3753 11.1518 36.7045L18.6943 29.162C19.215 28.6413 20.0592 28.6413 20.5799 29.162L27.2722 35.8543L42.4113 20.7151ZM25.3866 37.7399L19.6371 31.9904L13.0374 38.5901C10.9601 40.6674 9.9821 43.6015 10.3976 46.5097L11.3875 53.4393L18.3171 54.4293C21.2254 54.8447 24.1595 53.8667 26.2367 51.7894L32.8364 45.1897L27.2722 39.6255L22.6665 44.2312L20.7809 42.3455L25.3866 37.7399ZM45.093 10.306C42.4895 12.9095 42.4895 17.1306 45.093 19.7341C47.6965 22.3376 51.9176 22.3376 54.5211 19.7341L55.6526 18.6026L46.2245 9.17452L45.093 10.306Z" fill="black"/>
</svg>
