<svg width="37" height="36" viewBox="0 0 37 36" fill="none" xmlns="http://www.w3.org/2000/svg">
    <rect x="0.200195" width="36" height="36" rx="8" fill="#F1B022"/>
    <path d="M14.7002 7V6.1C14.2739 6.1 13.9061 6.39909 13.8191 6.81644L14.7002 7ZM12.2002 19L11.3191 18.8164C11.2639 19.0816 11.331 19.3576 11.5019 19.5678C11.6728 19.778 11.9293 19.9 12.2002 19.9V19ZM17.7002 19L18.5902 19.1335L18.7453 18.1H17.7002V19ZM16.2002 29L15.3102 28.8665C15.2464 29.2913 15.4918 29.7019 15.8961 29.8471C16.3004 29.9922 16.7509 29.8314 16.9719 29.463L16.2002 29ZM25.2002 14L25.9719 14.463C26.1388 14.185 26.1431 13.8387 25.9834 13.5566C25.8236 13.2744 25.5244 13.1 25.2002 13.1V14ZM19.2002 14L18.3348 13.7528L18.007 14.9H19.2002V14ZM21.2002 7L22.0656 7.24725C22.1432 6.9757 22.0888 6.68349 21.9187 6.45802C21.7486 6.23256 21.4826 6.1 21.2002 6.1V7ZM13.8191 6.81644L11.3191 18.8164L13.0813 19.1836L15.5813 7.18356L13.8191 6.81644ZM12.2002 19.9H17.7002V18.1H12.2002V19.9ZM16.8102 18.8665L15.3102 28.8665L17.0902 29.1335L18.5902 19.1335L16.8102 18.8665ZM16.9719 29.463L25.9719 14.463L24.4285 13.537L15.4285 28.537L16.9719 29.463ZM25.2002 13.1H19.2002V14.9H25.2002V13.1ZM20.0656 14.2472L22.0656 7.24725L20.3348 6.75275L18.3348 13.7528L20.0656 14.2472ZM21.2002 6.1H14.7002V7.9H21.2002V6.1Z" fill="white"/>
</svg>
