<svg width="64" height="65" viewBox="0 0 64 65" fill="none" xmlns="http://www.w3.org/2000/svg">
<path fill-rule="evenodd" clip-rule="evenodd" d="M21.4287 13.2468C21.6312 12.7406 22.1215 12.4087 22.6667 12.4087H36C36.6319 12.4087 37.177 12.8522 37.3055 13.4709L40.9314 30.929C45.2094 31.661 48.7916 34.4311 50.6434 38.2043L62.0283 45.1577C62.4248 45.3999 62.6667 45.831 62.6667 46.2956V48.0708C62.6667 48.8072 62.0697 49.4041 61.3333 49.4041H50.6667C49.9303 49.4041 49.3333 48.8072 49.3333 48.0708V44.0708C49.3333 39.1609 46.016 35.0258 41.5003 33.7846L42.4788 39.0905C44.2151 40.4316 45.3333 42.534 45.3333 44.8976C45.3333 48.9477 42.0501 52.231 38 52.231C34.5853 52.231 31.7157 49.8971 30.8994 46.7375H21.1006C20.2843 49.8971 17.4147 52.231 14 52.231C10.7083 52.231 7.92312 50.0622 6.9955 47.0756H4C1.79086 47.0756 0 45.2847 0 43.0756V29.2881C0 25.9225 3.07906 23.3983 6.37929 24.0583L16.3097 26.0444L21.4287 13.2468ZM2.66667 42.231V43.0756C2.66667 43.8119 3.26362 44.4089 4 44.4089H6.68269C6.93419 40.5867 10.1141 37.5643 14 37.5643C17.7706 37.5643 20.8765 40.41 21.2872 44.0708H30.7128C31.1235 40.41 34.2294 37.5643 38 37.5643C38.5192 37.5643 39.0259 37.6183 39.5146 37.7209L38.7185 33.4043C38.7012 33.4042 38.684 33.4041 38.6667 33.4041H11.4935C6.61857 33.4041 2.66667 37.356 2.66667 42.231ZM26.1775 30.7375H11.4935C7.94662 30.7375 4.77499 32.3441 2.66667 34.8693V29.2881C2.66667 27.6053 4.2062 26.3432 5.85631 26.6732L26.1775 30.7375ZM52 46.7375H59.4987L52 42.1575V46.7375ZM34.9151 15.0754L38.0984 30.4022L18.969 26.5763L23.5694 15.0754H34.9151ZM33.3333 44.8976C33.3333 47.475 35.4227 49.5643 38 49.5643C40.5773 49.5643 42.6667 47.475 42.6667 44.8976C42.6667 42.3203 40.5773 40.231 38 40.231C35.4227 40.231 33.3333 42.3203 33.3333 44.8976ZM14 40.231C11.4227 40.231 9.33333 42.3203 9.33333 44.8976C9.33333 47.475 11.4227 49.5643 14 49.5643C16.5773 49.5643 18.6667 47.475 18.6667 44.8976C18.6667 42.3203 16.5773 40.231 14 40.231Z" fill="black"/>
</svg>
