<svg width="50" height="42" viewBox="0 0 50 42" fill="none" xmlns="http://www.w3.org/2000/svg">
<g clip-path="url(#clip0_101_210)">
<g opacity="0.25">
<path d="M0 33.8542V35.4167C0 37.1354 1.875 38.5417 4.16667 38.5417H20.8333L25 41.6667L29.1667 38.5417L45.8333 38.5938C48.125 38.5938 50 37.1354 50 35.4167V33.8542H0Z" fill="black"/>
</g>
<path d="M21.0417 36.9791H4.16667C2.13542 36.9791 0.520836 35.3646 0.520836 33.3333V4.16665C0.520836 2.1354 2.13542 0.520813 4.16667 0.520813H45.8333C47.8646 0.520813 49.4792 2.1354 49.4792 4.16665V33.3333C49.4792 35.3646 47.8646 36.9791 45.8333 36.9791H28.9583L25 40.9375L21.0417 36.9791Z" fill="white"/>
<path d="M45.8333 1.04167C47.5521 1.04167 48.9583 2.44792 48.9583 4.16667V6.25V31.25V33.3333C48.9583 35.0521 47.5521 36.4583 45.8333 36.4583H29.1667H28.75L28.4375 36.7708L25 40.2083L21.5625 36.7708L21.25 36.4583H20.8333H4.16667C2.44792 36.4583 1.04167 35.0521 1.04167 33.3333V31.25V6.25V4.16667C1.04167 2.44792 2.44792 1.04167 4.16667 1.04167H45.8333ZM45.8333 0H4.16667C1.875 0 0 1.875 0 4.16667V6.25V31.25V33.3333C0 35.625 1.875 37.5 4.16667 37.5H20.8333L25 41.6667L29.1667 37.5H45.8333C48.125 37.5 50 35.625 50 33.3333V31.25V6.25V4.16667C50 1.875 48.125 0 45.8333 0Z" fill="#333333"/>
<path d="M23.6979 30.2083C32.7588 30.2083 40.1042 29.742 40.1042 29.1667C40.1042 28.5914 32.7588 28.125 23.6979 28.125C14.637 28.125 7.29167 28.5914 7.29167 29.1667C7.29167 29.742 14.637 30.2083 23.6979 30.2083Z" fill="#CCCCCC"/>
<path d="M30.2083 19.2709H9.89584V24.4792H30.2083V19.2709Z" fill="#F59C00"/>
<path d="M14.0625 15.1042H10.9375V19.2709H14.0625V15.1042Z" fill="#333333"/>
<path d="M25.1042 7.29169H18.0729C17.8646 7.29169 17.6563 7.39585 17.6042 7.60419L14.0625 15.1042V19.2709H29.1667L25.625 7.65627C25.5729 7.44794 25.3646 7.29169 25.1042 7.29169ZM18.2292 17.1875V12.8646C18.2292 12.6563 18.0729 12.4479 17.8646 12.3438L17.2396 12.1354C16.9271 12.0313 16.7708 11.7188 16.9271 11.4063L18.1771 8.59377C18.2813 8.38544 18.4375 8.28127 18.6458 8.28127H20.3125C20.5729 8.28127 20.7813 8.43752 20.8333 8.69794L22.9167 17.1875H18.2292ZM22.5521 8.85419H24.6354C24.8438 8.85419 25.0521 9.01044 25.1042 9.21877L27.6042 17.1875L23.9583 16.6667L22.0313 9.47919C21.9792 9.16669 22.1875 8.85419 22.5521 8.85419Z" fill="black"/>
<path d="M27.0833 20.8334C24.7917 20.8334 22.9167 22.7084 22.9167 25C22.9167 27.2917 24.7917 29.1667 27.0833 29.1667C29.375 29.1667 31.25 27.2917 31.25 25C31.25 22.7084 29.375 20.8334 27.0833 20.8334ZM27.0833 27.0834C25.9375 27.0834 25 26.1459 25 25C25 23.8542 25.9375 22.9167 27.0833 22.9167C28.2292 22.9167 29.1667 23.8542 29.1667 25C29.1667 26.1459 28.2292 27.0834 27.0833 27.0834Z" fill="black"/>
<path d="M15.625 20.8334C13.3333 20.8334 11.4583 22.7084 11.4583 25C11.4583 27.2917 13.3333 29.1667 15.625 29.1667C17.9167 29.1667 19.7917 27.2917 19.7917 25C19.7917 22.7084 17.9167 20.8334 15.625 20.8334ZM15.625 27.0834C14.4792 27.0834 13.5417 26.1459 13.5417 25C13.5417 23.8542 14.4792 22.9167 15.625 22.9167C16.7708 22.9167 17.7083 23.8542 17.7083 25C17.7083 26.1459 16.7708 27.0834 15.625 27.0834Z" fill="black"/>
<path d="M15.625 22.9167C16.7708 22.9167 17.7083 23.8542 17.7083 25C17.7083 26.1458 16.7708 27.0833 15.625 27.0833C14.4792 27.0833 13.5417 26.1458 13.5417 25C13.5417 23.8542 14.4792 22.9167 15.625 22.9167ZM15.625 21.875C13.9063 21.875 12.5 23.2812 12.5 25C12.5 26.7187 13.9063 28.125 15.625 28.125C17.3438 28.125 18.75 26.7187 18.75 25C18.75 23.2812 17.3438 21.875 15.625 21.875Z" fill="#666666"/>
<path d="M27.0833 22.9167C28.2292 22.9167 29.1667 23.8542 29.1667 25C29.1667 26.1458 28.2292 27.0833 27.0833 27.0833C25.9375 27.0833 25 26.1458 25 25C25 23.8542 25.9375 22.9167 27.0833 22.9167ZM27.0833 21.875C25.3646 21.875 23.9583 23.2812 23.9583 25C23.9583 26.7187 25.3646 28.125 27.0833 28.125C28.8021 28.125 30.2083 26.7187 30.2083 25C30.2083 23.2812 28.8021 21.875 27.0833 21.875Z" fill="#666666"/>
<path d="M27.0833 22.9167C25.9375 22.9167 25 23.8542 25 25C25 26.1459 25.9375 27.0834 27.0833 27.0834C28.2292 27.0834 29.1667 26.1459 29.1667 25C29.1667 23.8542 28.2292 22.9167 27.0833 22.9167Z" fill="white"/>
<path d="M27.0833 23.4375C26.1979 23.4375 25.5208 24.1146 25.5208 25C25.5208 25.8854 26.1979 26.5625 27.0833 26.5625C27.9688 26.5625 28.6458 25.8854 28.6458 25C28.6458 24.1146 27.9688 23.4375 27.0833 23.4375Z" fill="#FDCA00"/>
<path d="M15.625 22.9167C14.4792 22.9167 13.5417 23.8542 13.5417 25C13.5417 26.1459 14.4792 27.0834 15.625 27.0834C16.7708 27.0834 17.7083 26.1459 17.7083 25C17.7083 23.8542 16.7708 22.9167 15.625 22.9167Z" fill="white"/>
<path d="M15.625 23.4375C14.7396 23.4375 14.0625 24.1146 14.0625 25C14.0625 25.8854 14.7396 26.5625 15.625 26.5625C16.5104 26.5625 17.1875 25.8854 17.1875 25C17.1875 24.1146 16.5104 23.4375 15.625 23.4375Z" fill="#FDCA00"/>
<path d="M10.4167 24.4792C10.4167 21.9792 12.1875 19.8958 14.5313 19.375L14.5833 19.2708V18.0729C14.5833 17.8646 14.4792 17.6562 14.2708 17.6042L12.1875 16.7708C12.0833 16.7188 11.9792 16.6146 11.9271 16.5104L10.1042 11.9271C10 11.6667 9.73959 11.5625 9.47917 11.6146L7.13542 12.3958C6.92709 12.4479 6.77084 12.6563 6.77084 12.8646V24.1667C6.77084 24.375 6.875 24.5312 7.03125 24.6354L9.89584 26.0417H10.4167L10.5729 25.7812C10.4688 25.3646 10.4167 24.9479 10.4167 24.4792Z" fill="#FDCA00"/>
<path d="M10.4167 11.9792L11.4583 14.5834L26.0417 18.2292V16.1459L10.4167 11.9792Z" fill="#FDCA00"/>
<path d="M33.3333 20.3125L30.2083 17.1875L26.0417 16.1459L25.625 18.8542C25.5729 19.2188 25.8854 19.5313 26.25 19.4271C26.6146 19.323 27.0313 19.2709 27.4479 19.2709C29.5313 19.2188 31.4583 20.5209 32.3437 22.448C32.8646 23.5417 32.8646 24.5313 32.7083 25.4688L32.8125 25.5209L33.8542 25L33.3333 20.3125Z" fill="#FDCA00"/>
<path d="M33.8542 24.6875L34.7396 23.698C34.7917 23.6459 34.7917 23.5938 34.8438 23.5417L35.7292 21.4584C35.7813 21.3542 35.8333 21.3021 35.8854 21.25L36.9271 20.4688C37.1354 20.3125 37.3958 20.3646 37.5521 20.5209L43.0729 26.3542C43.1771 26.4584 43.2292 26.6146 43.2292 26.7709V27.0834C43.2292 27.3959 43.0208 27.6563 42.7083 27.6563H41.9271C41.7708 27.6563 41.6667 27.6042 41.5625 27.5L41.3542 27.2917C41.25 27.1875 41.1458 27.1355 40.9896 27.1355H34.9479C34.8438 27.1355 34.7396 27.0834 34.6354 27.0313L32.8125 25.3125L33.75 24.7917C33.8021 24.7396 33.8021 24.7396 33.8542 24.6875Z" fill="black"/>
</g>
<defs>
<clipPath id="clip0_101_210">
<rect width="50" height="41.6667" fill="white"/>
</clipPath>
</defs>
</svg>
