<svg width="36" height="36" viewBox="0 0 36 36" fill="none" xmlns="http://www.w3.org/2000/svg">
<rect width="36" height="36" rx="10" fill="#FF495F"/>
<mask id="mask0_10_83" style="mask-type:luminance" maskUnits="userSpaceOnUse" x="6" y="6" width="24" height="24">
<path d="M30 6H6V30H30V6Z" fill="white"/>
</mask>
<g mask="url(#mask0_10_83)">
<path d="M7.00001 10L7.63641 9.36361C7.37901 9.10622 6.9919 9.02922 6.65559 9.16852C6.31928 9.30782 6.10001 9.63599 6.10001 10H7.00001ZM10 7.00001V6.10001C9.63599 6.10001 9.30782 6.31928 9.16852 6.65559C9.02922 6.9919 9.10622 7.37901 9.36361 7.63641L10 7.00001ZM16 13L15.1123 12.852L15.0361 13.3089L15.3636 13.6364L16 13ZM13 16L13.6364 15.3636L13.3089 15.0361L12.852 15.1123L13 16ZM29 26L28.3636 26.6364C28.621 26.8938 29.0081 26.9708 29.3444 26.8315C29.6807 26.6922 29.9 26.364 29.9 26H29ZM26 29V29.9C26.364 29.9 26.6922 29.6807 26.8315 29.3444C26.9708 29.0081 26.8938 28.621 26.6364 28.3636L26 29ZM20 23L20.8878 23.148L20.9639 22.6911L20.6364 22.3636L20 23ZM23 20L22.3636 20.6364L22.6911 20.9639L23.148 20.8878L23 20ZM6.36361 10.6364L8.36361 12.6364L9.63641 11.3636L7.63641 9.36361L6.36361 10.6364ZM12.6364 8.36361L10.6364 6.36361L9.36361 7.63641L11.3636 9.63641L12.6364 8.36361ZM10 7.90001H12.2782V6.10001H10V7.90001ZM15.336 11.5096L15.1123 12.852L16.8878 13.148L17.1115 11.8056L15.336 11.5096ZM12.852 15.1123L11.5096 15.336L11.8056 17.1115L13.148 16.8878L12.852 15.1123ZM7.90001 12.2782V10H6.10001V12.2782H7.90001ZM29.6364 25.3636L27.6364 23.3636L26.3636 24.6364L28.3636 26.6364L29.6364 25.3636ZM23.3636 27.6364L25.3636 29.6364L26.6364 28.3636L24.6364 26.3636L23.3636 27.6364ZM26 28.1H23.7218V29.9H26V28.1ZM20.664 24.4904L20.8878 23.148L19.1122 22.852L18.8885 24.1944L20.664 24.4904ZM23.148 20.8878L24.4904 20.664L24.1944 18.8885L22.852 19.1122L23.148 20.8878ZM28.1 23.7218V26H29.9V23.7218H28.1ZM15.3636 13.6364L22.3636 20.6364L23.6364 19.3636L16.6364 12.3636L15.3636 13.6364ZM20.6364 22.3636L13.6364 15.3636L12.3636 16.6364L19.3636 23.6364L20.6364 22.3636ZM23.3636 23.3636C22.1837 24.5435 22.1837 26.4565 23.3636 27.6364L24.6364 26.3636C24.1594 25.8866 24.1594 25.1134 24.6364 24.6364L23.3636 23.3636ZM27.6364 23.3636C26.4565 22.1837 24.5435 22.1837 23.3636 23.3636L24.6364 24.6364C25.1134 24.1594 25.8866 24.1594 26.3636 24.6364L27.6364 23.3636ZM24.4904 20.664C26.3799 20.3491 28.1 21.8062 28.1 23.7218H29.9C29.9 20.6939 27.1812 18.3907 24.1944 18.8885L24.4904 20.664ZM12.2782 7.90001C14.1938 7.90001 15.6509 9.6201 15.336 11.5096L17.1115 11.8056C17.6093 8.81886 15.3061 6.10001 12.2782 6.10001V7.90001ZM11.5096 15.336C9.6201 15.6509 7.90001 14.1938 7.90001 12.2782H6.10001C6.10001 15.3061 8.81886 17.6093 11.8056 17.1115L11.5096 15.336ZM12.6364 12.6364C13.8163 11.4565 13.8163 9.54351 12.6364 8.36361L11.3636 9.63641C11.8406 10.1134 11.8406 10.8867 11.3636 11.3636L12.6364 12.6364ZM23.7218 28.1C21.8062 28.1 20.3491 26.3799 20.664 24.4904L18.8885 24.1944C18.3907 27.1812 20.6939 29.9 23.7218 29.9V28.1ZM8.36361 12.6364C9.54351 13.8163 11.4565 13.8163 12.6364 12.6364L11.3636 11.3636C10.8867 11.8406 10.1134 11.8406 9.63641 11.3636L8.36361 12.6364Z" fill="white"/>
<path d="M15 18L8.00002 25C7.17159 25.8284 7.17159 27.1716 8.00002 28C8.82845 28.8284 10.1716 28.8284 11 28L18.0001 21.0001" stroke="white" stroke-width="1.8"/>
<path d="M20 16L26 10" stroke="white" stroke-width="1.8"/>
<path d="M27 11L25 9L28 7L29 8L27 11Z" stroke="white" stroke-width="1.8" stroke-linejoin="round"/>
</g>
</svg>
