<?xml version="1.0" encoding="utf-8"?>
<!-- Generator: Adobe Illustrator 17.1.0, SVG Export Plug-In . SVG Version: 6.00 Build 0)  -->
<!DOCTYPE svg PUBLIC "-//W3C//DTD SVG 1.1//EN" "http://www.w3.org/Graphics/SVG/1.1/DTD/svg11.dtd">
<svg version="1.1" id="Слой_2" xmlns="http://www.w3.org/2000/svg" xmlns:xlink="http://www.w3.org/1999/xlink" x="0px" y="0px"
	 viewBox="0 0 80 80" style="enable-background:new 0 0 80 80;" xml:space="preserve">
<g id="погрузчик">
	<ellipse style="fill:#CCCCCC;" cx="37.5" cy="60" rx="31.5" ry="2"/>
	<g>
		<rect x="11" y="41" style="fill:#F59C00;" width="39" height="10"/>
		<rect x="13" y="33" style="fill:#333333;" width="6" height="8"/>
	</g>
	<path d="M40.2,18H26.7c-0.4,0-0.8,0.2-0.9,0.6L19,33v8h29l-6.8-22.3C41.1,18.3,40.7,18,40.2,18z M27,37v-8.3c0-0.4-0.3-0.8-0.7-1
		l-1.2-0.4c-0.6-0.2-0.9-0.8-0.6-1.4l2.4-5.4c0.2-0.4,0.5-0.6,0.9-0.6H31c0.5,0,0.9,0.3,1,0.8L36,37H27z M35.3,21h4
		c0.4,0,0.8,0.3,0.9,0.7L45,37l-7-1l-3.7-13.8C34.2,21.6,34.6,21,35.3,21z"/>
	<path d="M44,44c-4.4,0-8,3.6-8,8s3.6,8,8,8s8-3.6,8-8S48.4,44,44,44z M44,56c-2.2,0-4-1.8-4-4s1.8-4,4-4s4,1.8,4,4S46.2,56,44,56z"
		/>
	<path d="M22,44c-4.4,0-8,3.6-8,8s3.6,8,8,8s8-3.6,8-8S26.4,44,22,44z M22,56c-2.2,0-4-1.8-4-4s1.8-4,4-4s4,1.8,4,4S24.2,56,22,56z"
		/>
	<path style="fill:#666666;" d="M22,48c2.2,0,4,1.8,4,4s-1.8,4-4,4s-4-1.8-4-4S19.8,48,22,48 M22,46c-3.3,0-6,2.7-6,6s2.7,6,6,6
		s6-2.7,6-6S25.3,46,22,46L22,46z"/>
	<path style="fill:#666666;" d="M44,48c2.2,0,4,1.8,4,4s-1.8,4-4,4s-4-1.8-4-4S41.8,48,44,48 M44,46c-3.3,0-6,2.7-6,6s2.7,6,6,6
		s6-2.7,6-6S47.3,46,44,46L44,46z"/>
	<g>
		<path style="fill:#FFFFFF;" d="M44,48c-2.2,0-4,1.8-4,4s1.8,4,4,4s4-1.8,4-4S46.2,48,44,48z"/>
	</g>
	<g>
		<path style="fill:#FDCA00;" d="M44,49c-1.7,0-3,1.3-3,3s1.3,3,3,3s3-1.3,3-3S45.7,49,44,49z"/>
	</g>
	<g>
		<path style="fill:#FFFFFF;" d="M22,48c-2.2,0-4,1.8-4,4s1.8,4,4,4s4-1.8,4-4S24.2,48,22,48z"/>
	</g>
	<g>
		<path style="fill:#FDCA00;" d="M22,49c-1.7,0-3,1.3-3,3s1.3,3,3,3s3-1.3,3-3S23.7,49,22,49z"/>
	</g>
	<path style="fill:#FDCA00;" d="M12,51c0-4.8,3.4-8.8,7.9-9.8L20,41v-2.3c0-0.4-0.2-0.8-0.6-0.9l-4-1.6c-0.2-0.1-0.4-0.3-0.5-0.5
		l-3.5-8.8c-0.2-0.5-0.7-0.7-1.2-0.6l-4.5,1.5C5.3,27.9,5,28.3,5,28.7v21.7c0,0.4,0.2,0.7,0.5,0.9L11,54h1l0.3-0.5
		C12.1,52.7,12,51.9,12,51z"/>
	<polygon style="fill:#FDCA00;" points="12,27 14,32 42,39 42,35 	"/>
	<path style="fill:#FDCA00;" d="M56,43l-6-6l-8-2l-0.8,5.2c-0.1,0.7,0.5,1.3,1.2,1.1c0.7-0.2,1.5-0.3,2.3-0.3c4-0.1,7.7,2.4,9.4,6.1
		c1,2.1,1,4,0.7,5.8L55,53l2-1L56,43z"/>
	<path d="M57,51.4l1.7-1.9c0.1-0.1,0.1-0.2,0.2-0.3l1.7-4c0.1-0.2,0.2-0.3,0.3-0.4l2-1.5c0.4-0.3,0.9-0.2,1.2,0.1l10.6,11.2
		c0.2,0.2,0.3,0.5,0.3,0.8v0.6c0,0.6-0.4,1.1-1,1.1l-1.5,0c-0.3,0-0.5-0.1-0.7-0.3l-0.4-0.4c-0.2-0.2-0.4-0.3-0.7-0.3H59.1
		c-0.2,0-0.4-0.1-0.6-0.2L55,52.6l1.8-1C56.9,51.5,56.9,51.5,57,51.4z"/>
</g>
</svg>
