<svg width="50" height="42" viewBox="0 0 50 42" fill="none" xmlns="http://www.w3.org/2000/svg">
<g clip-path="url(#clip0_101_2)">
<g opacity="0.25">
<path d="M0 33.8542V35.4167C0 37.1354 1.875 38.5417 4.16667 38.5417H20.8333L25 41.6667L29.1667 38.5417L45.8333 38.5937C48.125 38.5937 50 37.1354 50 35.4167V33.8542H0Z" fill="black"/>
</g>
<path d="M21.0417 36.9792H4.16667C2.13542 36.9792 0.520832 35.3646 0.520832 33.3333V4.16668C0.520832 2.13543 2.13542 0.520844 4.16667 0.520844H45.8333C47.8646 0.520844 49.4792 2.13543 49.4792 4.16668V33.3333C49.4792 35.3646 47.8646 36.9792 45.8333 36.9792H28.9583L25 40.9375L21.0417 36.9792Z" fill="white"/>
<path d="M45.8333 1.04167C47.5521 1.04167 48.9583 2.44792 48.9583 4.16667V6.25V31.25V33.3333C48.9583 35.0521 47.5521 36.4583 45.8333 36.4583H29.1667H28.75L28.4375 36.7708L25 40.2083L21.5625 36.7708L21.25 36.4583H20.8333H4.16667C2.44792 36.4583 1.04167 35.0521 1.04167 33.3333V31.25V6.25V4.16667C1.04167 2.44792 2.44792 1.04167 4.16667 1.04167H45.8333ZM45.8333 0H4.16667C1.875 0 0 1.875 0 4.16667V6.25V31.25V33.3333C0 35.625 1.875 37.5 4.16667 37.5H20.8333L25 41.6667L29.1667 37.5H45.8333C48.125 37.5 50 35.625 50 33.3333V31.25V6.25V4.16667C50 1.875 48.125 0 45.8333 0Z" fill="#333333"/>
<path d="M25 29.6875C36.5059 29.6875 45.8333 29.2211 45.8333 28.6458C45.8333 28.0705 36.5059 27.6042 25 27.6042C13.4941 27.6042 4.16666 28.0705 4.16666 28.6458C4.16666 29.2211 13.4941 29.6875 25 29.6875Z" fill="#CCCCCC"/>
<path d="M44.7917 23.4375L44.2708 20.8333L44.8437 20.7812L44.2708 19.7917L39.5833 17.1875L34.2187 9.27082C34.0104 9.01041 33.6979 8.85416 33.3854 8.85416H23.4896L22.9167 17.7083V25H31.25C31.25 22.3958 33.3333 20.3125 35.9375 20.3125C38.5417 20.3125 40.625 22.3958 40.625 25H45.8333V23.4375H44.7917ZM28.6458 16.7187C28.6458 16.9792 28.4375 17.1875 28.1771 17.1875H26.0417C25.7812 17.1875 25.5729 16.9792 25.5729 16.7187V11.4583C25.5729 11.1979 25.7812 10.9375 26.0417 10.9375H28.1771C28.4375 10.9375 28.6458 11.1979 28.6458 11.4583V16.7187ZM37.0312 17.6562L30.1562 17.2396C29.8958 17.2396 29.6875 17.0312 29.6875 16.7708L29.7396 11.4583C29.7396 11.1979 29.9479 10.9375 30.2083 10.9375H33.5937C33.75 10.9375 33.9062 11.0417 34.0104 11.1979L37.3958 16.9271C37.7083 17.2396 37.4479 17.6562 37.0312 17.6562Z" fill="#FDCA00"/>
<path d="M6.5625 22.0833H5.88541V24.2708H6.5625V22.0833Z" fill="#F59C00"/>
<path d="M44.7917 23.4375L44.2708 20.8333L44.8437 20.7812L44.2708 19.7917L39.5833 17.1875L34.2187 9.27082C34.0104 9.01041 33.6979 8.85416 33.3854 8.85416H23.4896L23.4375 9.89582H33.3854C33.6979 9.89582 34.0104 10.0521 34.2187 10.3125L39.0625 17.7083L43.2292 20.3125L44.2708 25H45.8333V23.4375H44.7917Z" fill="#F59C00"/>
<path d="M21.875 16.6667H4.16666V21.875H21.875V16.6667Z" fill="#FDCA00"/>
<path d="M35.9375 28.6458C37.951 28.6458 39.5833 27.0135 39.5833 25C39.5833 22.9865 37.951 21.3542 35.9375 21.3542C33.924 21.3542 32.2917 22.9865 32.2917 25C32.2917 27.0135 33.924 28.6458 35.9375 28.6458Z" fill="black"/>
<path d="M35.9375 22.3958C34.4792 22.3958 33.3333 23.5416 33.3333 25C33.3333 26.4583 34.4792 27.6041 35.9375 27.6041C37.3958 27.6041 38.5417 26.4583 38.5417 25C38.5417 23.5416 37.3958 22.3958 35.9375 22.3958Z" fill="#666666"/>
<path d="M35.9375 26.8229C36.9443 26.8229 37.7604 26.0067 37.7604 25C37.7604 23.9932 36.9443 23.1771 35.9375 23.1771C34.9307 23.1771 34.1146 23.9932 34.1146 25C34.1146 26.0067 34.9307 26.8229 35.9375 26.8229Z" fill="white"/>
<path d="M35.9375 26.0416C36.5128 26.0416 36.9792 25.5753 36.9792 25C36.9792 24.4247 36.5128 23.9583 35.9375 23.9583C35.3622 23.9583 34.8958 24.4247 34.8958 25C34.8958 25.5753 35.3622 26.0416 35.9375 26.0416Z" fill="#FDCA00"/>
<path d="M13.5417 28.6458C15.5552 28.6458 17.1875 27.0135 17.1875 25C17.1875 22.9865 15.5552 21.3542 13.5417 21.3542C11.5281 21.3542 9.89583 22.9865 9.89583 25C9.89583 27.0135 11.5281 28.6458 13.5417 28.6458Z" fill="black"/>
<path d="M13.5417 22.3958C12.0833 22.3958 10.9375 23.5416 10.9375 25C10.9375 26.4583 12.0833 27.6041 13.5417 27.6041C15 27.6041 16.1458 26.4583 16.1458 25C16.1458 23.5416 15 22.3958 13.5417 22.3958Z" fill="#808080"/>
<path d="M13.5417 26.8229C14.5484 26.8229 15.3646 26.0067 15.3646 25C15.3646 23.9932 14.5484 23.1771 13.5417 23.1771C12.5349 23.1771 11.7187 23.9932 11.7187 25C11.7187 26.0067 12.5349 26.8229 13.5417 26.8229Z" fill="white"/>
<path d="M13.5417 26.0416C14.117 26.0416 14.5833 25.5753 14.5833 25C14.5833 24.4247 14.117 23.9583 13.5417 23.9583C12.9664 23.9583 12.5 24.4247 12.5 25C12.5 25.5753 12.9664 26.0416 13.5417 26.0416Z" fill="#FDCA00"/>
<path d="M28.6979 8.85417C28.6979 8.28125 29.1667 7.8125 29.6875 7.8125H30.3125C30.8854 7.8125 31.3021 8.28125 31.3021 8.85417H28.6979Z" fill="#333333"/>
<path d="M31.7708 18.2292H29.6875V19.2708H31.7708V18.2292Z" fill="#333333"/>
<path d="M6.77083 21.875V25H8.85416C8.85416 23.9583 9.32291 22.9167 10.0521 21.875H6.77083Z" fill="#333333"/>
<path d="M17.0312 21.875C17.7604 22.9167 18.2292 23.9583 18.2292 25H22.9167V21.875H17.0312Z" fill="#333333"/>
<path d="M13.5417 19.2708C11.5104 19.2708 9.79167 20.3125 8.75 21.875H10.0521C10.8854 20.8333 12.1354 20.3125 13.5417 20.3125C14.9479 20.3125 16.1458 20.8333 17.0313 21.875H18.3333C17.2917 20.3125 15.5729 19.2708 13.5417 19.2708Z" fill="#F59C00"/>
<path d="M10.0521 21.875H8.75C8.17708 22.9167 7.8125 23.9583 7.8125 25H8.85417C8.85417 23.9583 9.32292 22.9167 10.0521 21.875Z" fill="black"/>
<path d="M17.0312 21.875C17.7604 22.9167 18.2292 23.9583 18.2292 25H19.2708C19.2708 23.9583 18.9062 22.9167 18.3333 21.875H17.0312Z" fill="black"/>
<path d="M40.7292 21.875C39.6875 20.3125 37.9167 19.2708 35.9375 19.2708C33.9583 19.2708 32.1875 20.3125 31.1458 21.875C30.5729 22.7604 30.2083 23.9583 30.2083 25H31.25C31.25 23.9583 31.7187 22.7083 32.4479 21.875C33.2812 20.9375 34.5312 20.3125 35.9375 20.3125C37.3437 20.3125 38.5417 20.9375 39.4271 21.875C40.1562 22.7083 40.625 23.9583 40.625 25H41.6667C41.6667 23.9583 41.3021 22.7604 40.7292 21.875Z" fill="#F59C00"/>
<path d="M22.9167 15.1042H4.16666V16.6667H22.9167V15.1042Z" fill="#333333"/>
<path d="M22.9167 15.625H21.875V21.875H22.9167V15.625Z" fill="#333333"/>
</g>
<defs>
<clipPath id="clip0_101_2">
<rect width="50" height="41.6667" fill="white"/>
</clipPath>
</defs>
</svg>
