<svg width="36" height="36" viewBox="0 0 36 36" fill="none" xmlns="http://www.w3.org/2000/svg">
<rect width="36" height="36" rx="10" fill="#32DAFF"/>
<path d="M7.2 22.8H13.2V28.8C13.2 29.1183 13.3264 29.4235 13.5515 29.6485C13.7765 29.8736 14.0817 30 14.4 30H21.6C21.9183 30 22.2235 29.8736 22.4485 29.6485C22.6736 29.4235 22.8 29.1183 22.8 28.8V22.8H28.8C29.1183 22.8 29.4235 22.6736 29.6485 22.4485C29.8736 22.2235 30 21.9183 30 21.6V14.4C30 14.0817 29.8736 13.7765 29.6485 13.5515C29.4235 13.3264 29.1183 13.2 28.8 13.2H22.8V7.2C22.8 6.88174 22.6736 6.57651 22.4485 6.35147C22.2235 6.12643 21.9183 6 21.6 6H14.4C14.0817 6 13.7765 6.12643 13.5515 6.35147C13.3264 6.57651 13.2 6.88174 13.2 7.2V13.2H7.2C6.88174 13.2 6.57651 13.3264 6.35147 13.5515C6.12643 13.7765 6 14.0817 6 14.4V21.6C6 21.9183 6.12643 22.2235 6.35147 22.4485C6.57651 22.6736 6.88174 22.8 7.2 22.8ZM8.4 15.6H14.4C14.7183 15.6 15.0235 15.4736 15.2485 15.2485C15.4736 15.0235 15.6 14.7183 15.6 14.4V8.4H20.4V14.4C20.4 14.7183 20.5264 15.0235 20.7515 15.2485C20.9765 15.4736 21.2817 15.6 21.6 15.6H27.6V20.4H21.6C21.2817 20.4 20.9765 20.5264 20.7515 20.7515C20.5264 20.9765 20.4 21.2817 20.4 21.6V27.6H15.6V21.6C15.6 21.2817 15.4736 20.9765 15.2485 20.7515C15.0235 20.5264 14.7183 20.4 14.4 20.4H8.4V15.6Z" fill="white"/>
</svg>
