<svg width="36" height="36" viewBox="0 0 36 36" fill="none" xmlns="http://www.w3.org/2000/svg">
<rect width="36" height="36" rx="10" fill="#0FB73E"/>
<path d="M21.6562 17.2917C22.2404 17.5589 22.673 17.9844 23.0192 18.5677C23.3655 19.151 23.5384 19.7953 23.5384 20.5C23.5384 21.4723 23.2357 22.2985 22.6298 22.9792C22.024 23.6598 21.2885 24 20.4231 24H16.2692H10.0384C9.17295 24 8.43759 23.6598 7.83172 22.9792C7.22584 22.2985 6.92307 21.4723 6.92307 20.5C6.92307 19.7953 7.09603 19.151 7.4423 18.5677C7.78856 17.9844 8.2536 17.5589 8.83773 17.2917C8.53495 16.7083 8.42137 16.1068 8.49699 15.487C8.57259 14.8672 8.79457 14.3323 9.16225 13.8828C9.52993 13.4333 9.97906 13.1354 10.509 12.9896C11.0389 12.8438 11.5744 12.9046 12.1154 13.1719C12.202 12.2725 12.5428 11.5192 13.1376 10.9115C13.7325 10.3037 14.4302 10 15.2308 10C16.0313 10 16.7291 10.3037 17.3239 10.9115C17.9188 11.5192 18.2595 12.2725 18.3461 13.1719C18.8872 12.9046 19.4225 12.8438 19.9525 12.9896C20.4824 13.1354 20.9316 13.4333 21.2992 13.8828C21.6669 14.3323 21.8889 14.8672 21.9645 15.487C22.0401 16.1068 21.9376 16.7083 21.6562 17.2917Z" stroke="white" stroke-width="1.8" stroke-linejoin="round"/>
<path d="M18.9231 12.5L22.4899 8.18605C22.6852 7.93798 23.0491 7.93798 23.2442 8.18605L26.8108 12.7044C27.008 12.954 27.0617 13.3179 26.9478 13.6306C26.8327 13.9483 26.5675 14.154 26.2732 14.154H25.3387L27.8657 17.6497C28.0543 17.9109 28.0948 18.2655 27.9719 18.5747C27.8489 18.8847 27.5912 19.077 27.2998 19.077H26.3091L28.893 22.5573C29.0871 22.8185 29.1311 23.1762 29.0081 23.4904C28.8869 23.8 28.6201 24 28.3287 24H20.7692" stroke="white" stroke-width="1.8" stroke-linejoin="round"/>
<path d="M15.1385 24V28" stroke="white" stroke-width="1.8"/>
<path d="M23.4462 24V28" stroke="white" stroke-width="1.8"/>
</svg>
