<svg width="36" height="44" viewBox="0 0 36 44" fill="none" xmlns="http://www.w3.org/2000/svg">
<g clip-path="url(#clip0_32_3466)">
<path fill-rule="evenodd" clip-rule="evenodd" d="M19.3155 43.5065C18.5619 44.1645 17.4381 44.1645 16.6845 43.5065C5.62262 33.8474 0 25.4135 0 18C0 7.50133 8.19411 0 18 0C27.8059 0 36 7.50133 36 18C36 25.4135 30.3774 33.8474 19.3155 43.5065Z" fill="#FF495F"/>
<g clip-path="url(#clip1_32_3466)">
<path d="M7 11L7.6364 10.3636C7.379 10.1062 6.99189 10.0292 6.65558 10.1685C6.31928 10.3078 6.1 10.636 6.1 11H7ZM10 8V7.1C9.63598 7.1 9.30781 7.31928 9.16851 7.65558C9.02921 7.99189 9.10621 8.379 9.3636 8.6364L10 8ZM16 14L15.1122 13.852L15.0361 14.3089L15.3636 14.6364L16 14ZM13 17L13.6364 16.3636L13.3089 16.0361L12.852 16.1122L13 17ZM29 27L28.3636 27.6364C28.621 27.8938 29.0081 27.9708 29.3444 27.8315C29.6807 27.6922 29.9 27.364 29.9 27H29ZM26 30V30.9C26.364 30.9 26.6922 30.6807 26.8315 30.3444C26.9708 30.0081 26.8938 29.621 26.6364 29.3636L26 30ZM20 24L20.8878 24.148L20.9639 23.6911L20.6364 23.3636L20 24ZM23 21L22.3636 21.6364L22.6911 21.9639L23.148 21.8878L23 21ZM27 25L27.6364 24.3636L27 25ZM24.3424 20.7763L24.1944 19.8885L24.3424 20.7763ZM6.3636 11.6364L8.3636 13.6364L9.6364 12.3636L7.6364 10.3636L6.3636 11.6364ZM12.6364 9.3636L10.6364 7.3636L9.3636 8.6364L11.3636 10.6364L12.6364 9.3636ZM10 8.9H12.2782V7.1H10V8.9ZM15.336 12.5096L15.1122 13.852L16.8878 14.148L17.1115 12.8056L15.336 12.5096ZM12.852 16.1122L11.5096 16.336L11.8056 18.1115L13.148 17.8878L12.852 16.1122ZM7.9 13.2782V11H6.1V13.2782H7.9ZM29.6364 26.3636L27.6364 24.3636L26.3636 25.6364L28.3636 27.6364L29.6364 26.3636ZM23.3636 28.6364L25.3636 30.6364L26.6364 29.3636L24.6364 27.3636L23.3636 28.6364ZM26 29.1H23.7218V30.9H26V29.1ZM20.664 25.4904L20.8878 24.148L19.1122 23.852L18.8885 25.1944L20.664 25.4904ZM23.148 21.8878L24.4904 21.664L24.1944 19.8885L22.852 20.1122L23.148 21.8878ZM28.1 24.7218V27H29.9V24.7218H28.1ZM15.3636 14.6364L22.3636 21.6364L23.6364 20.3636L16.6364 13.3636L15.3636 14.6364ZM20.6364 23.3636L13.6364 16.3636L12.3636 17.6364L19.3636 24.6364L20.6364 23.3636ZM23.3636 24.3636C22.1837 25.5435 22.1837 27.4565 23.3636 28.6364L24.6364 27.3636C24.1594 26.8866 24.1594 26.1134 24.6364 25.6364L23.3636 24.3636ZM27.6364 24.3636C26.4565 23.1837 24.5435 23.1837 23.3636 24.3636L24.6364 25.6364C25.1134 25.1594 25.8866 25.1594 26.3636 25.6364L27.6364 24.3636ZM24.4904 21.664C26.3799 21.3491 28.1 22.8062 28.1 24.7218H29.9C29.9 21.6939 27.1812 19.3907 24.1944 19.8885L24.4904 21.664ZM12.2782 8.9C14.1938 8.9 15.6509 10.6201 15.336 12.5096L17.1115 12.8056C17.6093 9.81885 15.3061 7.1 12.2782 7.1V8.9ZM11.5096 16.336C9.62009 16.6509 7.9 15.1938 7.9 13.2782H6.1C6.1 16.3061 8.81885 18.6093 11.8056 18.1115L11.5096 16.336ZM12.6364 13.6364C13.8163 12.4565 13.8163 10.5435 12.6364 9.3636L11.3636 10.6364C11.8406 11.1134 11.8406 11.8866 11.3636 12.3636L12.6364 13.6364ZM23.7218 29.1C21.8062 29.1 20.3491 27.3799 20.664 25.4904L18.8885 25.1944C18.3907 28.1812 20.6939 30.9 23.7218 30.9V29.1ZM8.3636 13.6364C9.5435 14.8163 11.4565 14.8163 12.6364 13.6364L11.3636 12.3636C10.8866 12.8406 10.1134 12.8406 9.6364 12.3636L8.3636 13.6364Z" fill="white"/>
<path d="M15 19L8.00001 26C7.17158 26.8284 7.17158 28.1716 8.00001 29V29C8.82844 29.8284 10.1716 29.8284 11 29L18.0001 22.0001" stroke="white" stroke-width="1.8"/>
<path d="M20 17L26 11" stroke="white" stroke-width="1.8"/>
<path d="M27 12L25 10L28 8L29 9L27 12Z" stroke="white" stroke-width="1.8" stroke-linejoin="round"/>
</g>
</g>
<defs>
<clipPath id="clip0_32_3466">
<rect width="36" height="44" rx="18" fill="white"/>
</clipPath>
<clipPath id="clip1_32_3466">
<rect width="24" height="24" fill="white" transform="translate(6 7)"/>
</clipPath>
</defs>
</svg>
