<svg width="36" height="36" viewBox="0 0 36 36" fill="none" xmlns="http://www.w3.org/2000/svg">
<g clip-path="url(#clip0_104_27)">
<path d="M28 0H8C3.58172 0 0 3.58172 0 8V28C0 32.4183 3.58172 36 8 36H28C32.4183 36 36 32.4183 36 28V8C36 3.58172 32.4183 0 28 0Z" fill="#F1B022"/>
<mask id="mask0_104_27" style="mask-type:luminance" maskUnits="userSpaceOnUse" x="6" y="6" width="24" height="24">
<path d="M30 6H6V30H30V6Z" fill="white"/>
</mask>
<g mask="url(#mask0_104_27)">
<path d="M28.6067 28.5938H26.7517V6.70312C26.7517 6.31481 26.4369 6 26.0486 6H9.95064C9.56233 6 9.24752 6.31481 9.24752 6.70312V28.5938H7.39258C7.00427 28.5938 6.68945 28.9086 6.68945 29.2969C6.68945 29.6852 7.00427 30 7.39258 30H28.6068C28.9951 30 29.3099 29.6852 29.3099 29.2969C29.3099 28.9086 28.9951 28.5938 28.6067 28.5938ZM15.6029 28.5938V23.8003H20.3964V28.5938H15.6029ZM21.8026 28.5938V23.0971C21.8026 22.7088 21.4878 22.394 21.0995 22.394H14.8997C14.5114 22.394 14.1966 22.7088 14.1966 23.0971V28.5938H10.6538V7.40625H25.3455V28.5938H21.8026Z" fill="white"/>
<path d="M16.4877 9.10815H13.042C12.6537 9.10815 12.3389 9.42298 12.3389 9.81129V13.257C12.3389 13.6453 12.6537 13.9601 13.042 13.9601H16.4877C16.876 13.9601 17.1908 13.6453 17.1908 13.257V9.81129C17.1908 9.42298 16.876 9.10815 16.4877 9.10815ZM15.7846 12.5538H13.7451V10.5144H15.7846V12.5538Z" fill="white"/>
<path d="M22.9574 9.10815H19.5117C19.1234 9.10815 18.8086 9.42298 18.8086 9.81129V13.257C18.8086 13.6453 19.1234 13.9601 19.5117 13.9601H22.9574C23.3457 13.9601 23.6605 13.6453 23.6605 13.257V9.81129C23.6605 9.42298 23.3457 9.10815 22.9574 9.10815ZM22.2543 12.5538H20.2148V10.5144H22.2543V12.5538Z" fill="white"/>
<path d="M16.4877 15.6541H13.042C12.6537 15.6541 12.3389 15.9689 12.3389 16.3572V19.8029C12.3389 20.1912 12.6537 20.506 13.042 20.506H16.4877C16.876 20.506 17.1908 20.1912 17.1908 19.8029V16.3572C17.1908 15.9689 16.876 15.6541 16.4877 15.6541ZM15.7846 19.0997H13.7451V17.0603H15.7846V19.0997Z" fill="white"/>
<path d="M22.9574 15.6541H19.5117C19.1234 15.6541 18.8086 15.9689 18.8086 16.3572V19.8029C18.8086 20.1912 19.1234 20.506 19.5117 20.506H22.9574C23.3457 20.506 23.6605 20.1912 23.6605 19.8029V16.3572C23.6605 15.9689 23.3457 15.6541 22.9574 15.6541ZM22.2543 19.0997H20.2148V17.0603H22.2543V19.0997Z" fill="white"/>
</g>
</g>
<defs>
<clipPath id="clip0_104_27">
<rect width="36" height="36" fill="white"/>
</clipPath>
</defs>
</svg>
