<svg width="36" height="36" viewBox="0 0 36 36" fill="none" xmlns="http://www.w3.org/2000/svg">
<g clip-path="url(#clip0_104_24)">
<path d="M28 0H8C3.58172 0 0 3.58172 0 8V28C0 32.4183 3.58172 36 8 36H28C32.4183 36 36 32.4183 36 28V8C36 3.58172 32.4183 0 28 0Z" fill="#133D6F"/>
<path d="M17.25 19.837C15.8175 20.176 14.75 21.464 14.75 23C14.75 24.7935 16.2065 26.25 18 26.25C19.7935 26.25 21.25 24.7935 21.25 23C21.25 21.464 20.1825 20.176 18.75 19.837V13.5C18.75 13.086 18.414 12.75 18 12.75C17.586 12.75 17.25 13.086 17.25 13.5V19.837ZM18 21.25C18.966 21.25 19.75 22.034 19.75 23C19.75 23.9655 18.966 24.75 18 24.75C17.034 24.75 16.25 23.9655 16.25 23C16.25 22.034 17.034 21.25 18 21.25ZM9.25 20C9.25 15.1705 13.1705 11.25 18 11.25C22.8295 11.25 26.75 15.1705 26.75 20C26.75 20.414 27.086 20.75 27.5 20.75C27.914 20.75 28.25 20.414 28.25 20C28.25 14.3425 23.657 9.75 18 9.75C12.343 9.75 7.75 14.3425 7.75 20C7.75 20.414 8.086 20.75 8.5 20.75C8.914 20.75 9.25 20.414 9.25 20Z" fill="white"/>
</g>
<defs>
<clipPath id="clip0_104_24">
<rect width="36" height="36" fill="white"/>
</clipPath>
</defs>
</svg>
