<svg width="64" height="65" viewBox="0 0 64 65" fill="none" xmlns="http://www.w3.org/2000/svg">
<path d="M24 41.3682C24 40.6319 23.403 40.0349 22.6667 40.0349C21.9303 40.0349 21.3333 40.6319 21.3333 41.3682C21.3333 46.5153 25.5196 50.7016 30.6667 50.7016C31.403 50.7016 32 50.1046 32 49.3682C32 48.6319 31.403 48.0349 30.6667 48.0349C26.9923 48.0349 24 45.0426 24 41.3682Z" fill="black"/>
<path fill-rule="evenodd" clip-rule="evenodd" d="M34.0506 5.15161C34.4838 5.71593 34.8089 6.45697 35.0458 7.29585C37.3794 15.0177 41.2667 19.9776 44.7833 24.4645L45.135 24.9135C48.715 29.4867 52 33.8158 52 40.1506C52 51.149 43.0461 60.0349 32 60.0349C20.9539 60.0349 12 51.149 12 40.1506C12 33.845 15.2913 29.4964 18.8726 24.9087L19.2275 24.4544C22.7485 19.9493 26.6363 14.9748 28.9578 7.28405L28.9586 7.28127C29.225 6.40566 29.5768 5.64742 30.0358 5.08296C30.4925 4.52135 31.1822 4.01198 32.0775 4.03571C32.9622 4.05916 33.622 4.59306 34.0506 5.15161ZM32.0145 6.88911C31.8658 7.11324 31.6839 7.48557 31.5103 8.05605C29.0424 16.2307 24.8881 21.544 21.3693 26.0445L20.9746 26.5496C17.3456 31.1985 14.6667 34.8739 14.6667 40.1506C14.6667 49.6605 22.411 57.3683 32 57.3683C41.589 57.3683 49.3333 49.6605 49.3333 40.1506C49.3333 34.8448 46.6598 31.1874 43.0352 26.5572L42.6445 26.0587C39.1266 21.5718 34.9694 16.2696 32.4893 8.0547L32.4856 8.04236L32.4821 8.02994C32.3278 7.48071 32.1578 7.11362 32.0145 6.88911Z" fill="black"/>
</svg>
