<svg width="18" height="18" viewBox="0 0 18 18" fill="none" xmlns="http://www.w3.org/2000/svg">
<g clip-path="url(#clip0_1_6)">
<path d="M9 17.146C7.88867 17.146 6.83667 16.934 5.844 16.51C4.85067 16.0867 3.98267 15.5033 3.24 14.76C2.49667 14.0173 1.91334 13.1493 1.49 12.156C1.066 11.1633 0.854004 10.1113 0.854004 9C0.854004 7.87467 1.066 6.819 1.49 5.833C1.91334 4.847 2.49667 3.98267 3.24 3.24C3.98267 2.49667 4.85067 1.91334 5.844 1.49C6.83667 1.066 7.88867 0.854004 9 0.854004C10.1253 0.854004 11.181 1.066 12.167 1.49C13.153 1.91334 14.0173 2.49667 14.76 3.24C15.5033 3.98267 16.0867 4.847 16.51 5.833C16.934 6.819 17.146 7.87467 17.146 9V10.25C17.146 11.0553 16.8717 11.729 16.323 12.271C15.7743 12.8123 15.0973 13.083 14.292 13.083C13.8053 13.083 13.3607 12.9617 12.958 12.719C12.5553 12.4757 12.2153 12.1527 11.938 11.75C11.5627 12.1667 11.1217 12.493 10.615 12.729C10.1077 12.965 9.56934 13.083 9 13.083C7.87467 13.083 6.913 12.6837 6.115 11.885C5.31634 11.087 4.917 10.1253 4.917 9C4.917 7.87467 5.31634 6.913 6.115 6.115C6.913 5.31634 7.87467 4.917 9 4.917C10.1387 4.917 11.104 5.31634 11.896 6.115C12.6873 6.913 13.083 7.87467 13.083 9V10.208C13.083 10.5413 13.1977 10.826 13.427 11.062C13.6563 11.2987 13.9447 11.417 14.292 11.417C14.6253 11.417 14.91 11.2987 15.146 11.062C15.382 10.826 15.5 10.5413 15.5 10.208V9C15.5 7.19467 14.868 5.66 13.604 4.396C12.34 3.132 10.8053 2.5 9 2.5C7.19467 2.5 5.66 3.132 4.396 4.396C3.132 5.66 2.5 7.19467 2.5 9C2.5 10.8053 3.132 12.34 4.396 13.604C5.66 14.868 7.19467 15.5 9 15.5H13V17.146H9ZM9 11.417C9.66667 11.417 10.236 11.1807 10.708 10.708C11.1807 10.236 11.417 9.66667 11.417 9C11.417 8.33334 11.1807 7.764 10.708 7.292C10.236 6.81934 9.66667 6.583 9 6.583C8.33334 6.583 7.764 6.81934 7.292 7.292C6.81934 7.764 6.583 8.33334 6.583 9C6.583 9.66667 6.81934 10.236 7.292 10.708C7.764 11.1807 8.33334 11.417 9 11.417Z" fill="#333333"/>
</g>
<defs>
<clipPath id="clip0_1_6">
<rect width="18" height="18" fill="white"/>
</clipPath>
</defs>
</svg>
