<svg width="64" height="65" viewBox="0 0 64 65" fill="none" xmlns="http://www.w3.org/2000/svg">
<path fill-rule="evenodd" clip-rule="evenodd" d="M12.0001 9.56421C11.4772 9.56421 11.0026 9.86981 10.7862 10.3458L5.24514 22.5362C2.98162 27.516 6.17033 32.554 10.6667 33.6565V56.2309H53.3333V33.5642H53.3298C57.6315 32.3493 60.685 27.5289 58.5553 22.6305L53.2228 10.3659C53.0112 9.87909 52.5309 9.56421 52.0001 9.56421H12.0001ZM50.6667 33.835C49.5367 33.7508 48.3787 33.4115 47.2496 32.7663L46.6398 32.4178L45.1601 33.1951C41.9319 34.8908 38.1079 35.0267 34.7676 33.5645L32.0242 32.3636L29.8378 33.4077C26.5673 34.9695 22.7661 34.9695 19.4956 33.4077L17.3468 32.3815L16.1058 33.0021C15.1816 33.4642 14.2481 33.7319 13.3333 33.8323V44.2309H50.6667V33.835ZM50.6667 46.8975H13.3333V53.5642H50.6667V46.8975ZM7.67279 23.6397L12.8586 12.2309H19.863L16.0444 30.0513L14.9132 30.6169C10.4178 32.8646 5.59299 28.2152 7.67279 23.6397ZM18.7608 30.1016L22.5903 12.2309H30.6667V30.0567L28.6887 31.0013C26.145 32.216 23.1885 32.216 20.6448 31.0013L18.7608 30.1016ZM33.3334 30.0257V12.2309H41.4098L45.2469 30.1373L43.92 30.8343C41.4092 32.1532 38.435 32.2589 35.8369 31.1216L33.3334 30.0257ZM51.1259 12.2309H44.137L47.9672 30.105L48.5726 30.451C53.0274 32.9965 58.1555 28.399 56.1097 23.6938L51.1259 12.2309Z" fill="black"/>
</svg>
