<?xml version="1.0" encoding="utf-8"?>
<!-- Generator: Adobe Illustrator 17.1.0, SVG Export Plug-In . SVG Version: 6.00 Build 0)  -->
<!DOCTYPE svg PUBLIC "-//W3C//DTD SVG 1.1//EN" "http://www.w3.org/Graphics/SVG/1.1/DTD/svg11.dtd">
<svg version="1.1" id="Слой_2" xmlns="http://www.w3.org/2000/svg" xmlns:xlink="http://www.w3.org/1999/xlink" x="0px" y="0px"
	 viewBox="0 0 80 80" style="enable-background:new 0 0 80 80;" xml:space="preserve">
<g id="грейдер">
	<ellipse style="fill:#CCCCCC;" cx="40" cy="57" rx="40" ry="2"/>
	<path style="fill:#FDCA00;" d="M36,48H5c-0.6,0-1-0.4-1-1v-3h32V48z"/>
	<rect x="71" y="48" style="fill:#333333;" width="3" height="3"/>
	<g>
		<circle cx="13" cy="50" r="7"/>
		<path style="fill:#666666;" d="M13,45c-2.8,0-5,2.2-5,5s2.2,5,5,5s5-2.2,5-5S15.8,45,13,45L13,45z"/>
		<circle style="fill:#FFFFFF;" cx="13" cy="50" r="3.5"/>
		<circle style="fill:#FDCA00;" cx="13" cy="50" r="2"/>
	</g>
	<g>
		<circle cx="29" cy="50" r="7"/>
		<path style="fill:#666666;" d="M29,45c-2.8,0-5,2.2-5,5s2.2,5,5,5s5-2.2,5-5S31.8,45,29,45L29,45z"/>
		<circle style="fill:#FFFFFF;" cx="29" cy="50" r="3.5"/>
		<circle style="fill:#FDCA00;" cx="29" cy="50" r="2"/>
	</g>
	<circle cx="65" cy="50" r="7"/>
	<path style="fill:#666666;" d="M65,45c-2.8,0-5,2.2-5,5s2.2,5,5,5s5-2.2,5-5S67.8,45,65,45L65,45z"/>
	<circle style="fill:#FFFFFF;" cx="65" cy="50" r="3.5"/>
	<circle style="fill:#FDCA00;" cx="65" cy="50" r="2"/>
	<path style="fill:#F59C00;" d="M52,55h-4.1c-1.1,0-1.9-0.9-1.9-1.9V43h0.6c0.8,0,1.5,0.5,1.8,1.3L52,55z"/>
	<path style="fill:#F59C00;" d="M80,55.9L76.2,56C75,56,74,55,74,53.8V42h0.7c1,0,1.8,0.6,2.1,1.5L80,55.9z"/>
	<path style="fill:#333333;" d="M36,44H0.9C0.4,44,0,43.6,0,43.1v-2.1C0,40.4,0.4,40,0.9,40H36V44z"/>
	<path style="fill:#F59C00;" d="M24,40H2v-5c0-1.1,0.9-2,2-2h20V40z"/>
	<rect x="16" y="25" style="fill:#FDCA00;" width="2" height="8"/>
	<path d="M18,27h-2c-0.6,0-1-0.4-1-1v-2c0-0.6,0.4-1,1-1h2c0.6,0,1,0.4,1,1v2C19,26.6,18.6,27,18,27z"/>
	<rect x="24" y="21" width="2" height="19"/>
	<rect x="30" y="21" width="2" height="19"/>
	<polygon points="36,40 34,40 37,23 39,23 	"/>
	<path d="M40,23H24v-2h14C39.1,21,40,21.9,40,23L40,23z"/>
	<polygon style="fill:#FDCA00;" points="71,42 44,39 44,35 71,38 	"/>
	<polygon style="fill:#F59C00;" points="36,44 44,39 44,35 36,40 	"/>
	<path style="fill:#F59C00;" d="M57.1,51c0-0.3-0.1-0.7-0.1-1c0-4.4,3.6-8,8-8c2.4,0,4.5,1.1,6,2.7V42c-1.7-1.3-3.7-2-6-2
		c-5.5,0-10,4.5-10,10c0,0.3,0,0.7,0.1,1H57.1z"/>
	<g>
		<rect x="46" y="32" style="fill:#333333;" width="2" height="15"/>
		<rect x="45" y="43" style="fill:#333333;" width="2" height="6"/>
		<rect x="45" y="34" style="fill:#333333;" width="3" height="6"/>
	</g>
	<rect x="26" y="36" width="9" height="4"/>
</g>
</svg>
