<svg width="50" height="42" viewBox="0 0 50 42" fill="none" xmlns="http://www.w3.org/2000/svg">
<g clip-path="url(#clip0_101_182)">
<g opacity="0.25">
<path d="M0 33.8542V35.4167C0 37.1354 1.875 38.5417 4.16667 38.5417H20.8333L25 41.6667L29.1667 38.5417L45.8333 38.5937C48.125 38.5937 50 37.1354 50 35.4167V33.8542H0Z" fill="black"/>
</g>
<path d="M21.0417 36.9792H4.16666C2.13541 36.9792 0.520828 35.3646 0.520828 33.3333V4.16668C0.520828 2.13543 2.13541 0.520844 4.16666 0.520844H45.8333C47.8646 0.520844 49.4792 2.13543 49.4792 4.16668V33.3333C49.4792 35.3646 47.8646 36.9792 45.8333 36.9792H28.9583L25 40.9375L21.0417 36.9792Z" fill="white"/>
<path d="M45.8333 1.04167C47.5521 1.04167 48.9583 2.44792 48.9583 4.16667V6.25V31.25V33.3333C48.9583 35.0521 47.5521 36.4583 45.8333 36.4583H29.1667H28.75L28.4375 36.7708L25 40.2083L21.5625 36.7708L21.25 36.4583H20.8333H4.16667C2.44792 36.4583 1.04167 35.0521 1.04167 33.3333V31.25V6.25V4.16667C1.04167 2.44792 2.44792 1.04167 4.16667 1.04167H45.8333ZM45.8333 0H4.16667C1.875 0 0 1.875 0 4.16667V6.25V31.25V33.3333C0 35.625 1.875 37.5 4.16667 37.5H20.8333L25 41.6667L29.1667 37.5H45.8333C48.125 37.5 50 35.625 50 33.3333V31.25V6.25V4.16667C50 1.875 48.125 0 45.8333 0Z" fill="#333333"/>
<path d="M24.7396 31.25C32.9376 31.25 39.5833 30.7836 39.5833 30.2083C39.5833 29.633 32.9376 29.1667 24.7396 29.1667C16.5416 29.1667 9.89583 29.633 9.89583 30.2083C9.89583 30.7836 16.5416 31.25 24.7396 31.25Z" fill="#CCCCCC"/>
<path d="M33.3333 11.4583H32.2917V17.7083H33.3333V11.4583Z" fill="#333333"/>
<path d="M33.6458 25.5208H26.0417V20.8333H35.2083L33.6458 25.5208Z" fill="#333333"/>
<path d="M35.5729 21.7708L28.9583 20.8333L28.4375 16.6667L39.8958 19.1667C40.1562 19.2187 40.3646 19.4792 40.2604 19.7917L39.4271 23.0729C39.375 23.2812 39.1667 23.4375 38.9583 23.4375H37.2396L36.5625 22.4479C36.4062 22.0833 35.9896 21.8229 35.5729 21.7708Z" fill="#FDCA00"/>
<path d="M34.6875 22.9167C32.6563 22.9167 31.0417 24.5312 31.0417 26.5625C31.0417 28.5937 32.6563 30.2083 34.6875 30.2083C36.7188 30.2083 38.3333 28.5937 38.3333 26.5625C38.3333 24.5312 36.7188 22.9167 34.6875 22.9167ZM34.6875 28.6458C33.5417 28.6458 32.6042 27.7083 32.6042 26.5625C32.6042 25.4167 33.5417 24.4792 34.6875 24.4792C35.8333 24.4792 36.7708 25.4167 36.7708 26.5625C36.7708 27.7083 35.8333 28.6458 34.6875 28.6458Z" fill="black"/>
<path d="M34.6875 25C35.5729 25 36.25 25.6771 36.25 26.5625C36.25 27.4479 35.5729 28.125 34.6875 28.125C33.8021 28.125 33.125 27.4479 33.125 26.5625C33.125 25.6771 33.8542 25 34.6875 25ZM34.6875 23.9583C33.2292 23.9583 32.0833 25.1042 32.0833 26.5625C32.0833 28.0208 33.2292 29.1667 34.6875 29.1667C36.1458 29.1667 37.2917 28.0208 37.2917 26.5625C37.2917 25.1042 36.1458 23.9583 34.6875 23.9583Z" fill="#666666"/>
<path d="M34.6875 25C33.8021 25 33.125 25.6771 33.125 26.5625C33.125 27.4479 33.8021 28.125 34.6875 28.125C35.5729 28.125 36.25 27.4479 36.25 26.5625C36.25 25.6771 35.5729 25 34.6875 25Z" fill="white"/>
<path d="M34.6875 25.5208C34.1146 25.5208 33.6458 25.9896 33.6458 26.5625C33.6458 27.1354 34.1146 27.6042 34.6875 27.6042C35.2604 27.6042 35.7292 27.1354 35.7292 26.5625C35.7292 25.9896 35.2604 25.5208 34.6875 25.5208Z" fill="#FDCA00"/>
<path d="M16.4583 19.7917C13.5937 19.7917 11.25 22.1354 11.25 25C11.25 27.8646 13.5937 30.2083 16.4583 30.2083C19.1667 30.2083 21.3542 28.1771 21.6667 25.5208C21.6667 25.3646 21.6667 25.1562 21.6667 25C21.6667 22.1354 19.3229 19.7917 16.4583 19.7917ZM16.4583 27.6042C15 27.6042 13.8542 26.4583 13.8542 25C13.8542 23.5417 15 22.3958 16.4583 22.3958C17.9167 22.3958 19.0625 23.5417 19.0625 25C19.0625 26.4583 17.9167 27.6042 16.4583 27.6042Z" fill="black"/>
<path d="M16.4583 22.3958C17.9167 22.3958 19.0625 23.5417 19.0625 25C19.0625 26.4583 17.9167 27.6042 16.4583 27.6042C15 27.6042 13.8542 26.4583 13.8542 25C13.8542 23.5417 15 22.3958 16.4583 22.3958ZM16.4583 20.8333C14.1667 20.8333 12.2917 22.7083 12.2917 25C12.2917 27.2917 14.1667 29.1667 16.4583 29.1667C18.75 29.1667 20.625 27.2917 20.625 25C20.625 22.7083 18.75 20.8333 16.4583 20.8333Z" fill="#666666"/>
<path d="M16.4583 23.4375C15.5729 23.4375 14.8958 24.1146 14.8958 25C14.8958 25.8854 15.5729 26.5625 16.4583 26.5625C17.3437 26.5625 18.0208 25.8854 18.0208 25C18.0208 24.1146 17.3437 23.4375 16.4583 23.4375Z" fill="#FDCA00"/>
<path d="M13.3333 16.6667L14.375 7.29166H27.9167L29.6875 21.3542V26.0417H24.2708L20.625 17.1875L13.3333 16.6667Z" fill="black"/>
<path d="M20.625 16.6667L11.7708 16.1458L9.6875 21.3542L11.0417 21.8229C12.1354 19.9479 14.1667 18.6458 16.4583 18.6458C19.8958 18.6458 22.7083 21.4583 22.7083 24.8958C22.7083 25.2083 22.6563 25.5208 22.6042 25.8333L23.2292 26.0417H25.3125L20.625 16.6667Z" fill="#F59C00"/>
<path d="M15.3646 8.80209L14.9479 14.5833C14.9479 14.8438 15.1563 15.1042 15.4167 15.1563L19.0104 15.5729C19.3229 15.625 19.5833 15.3646 19.5833 15.0521V8.85418C19.5833 8.54168 19.3229 8.33334 19.0625 8.33334H15.8854C15.625 8.33334 15.4167 8.54168 15.3646 8.80209Z" fill="white"/>
<path d="M26.7708 19.2708H24.375C23.9583 19.2708 23.5937 19.0625 23.4375 18.6979L21.25 14.2708C21.1979 14.1146 21.1458 13.9583 21.1458 13.8021V9.89582C21.1458 9.32291 21.6146 8.85416 22.1875 8.85416H25.9375C26.4583 8.85416 26.9271 9.27082 26.9792 9.79166L27.8125 18.125C27.8646 18.75 27.3958 19.2708 26.7708 19.2708Z" fill="white"/>
<path d="M28.9583 7.29167H13.3333C13.3333 6.71875 13.8021 6.25 14.375 6.25H27.9167C28.4896 6.25 28.9583 6.71875 28.9583 7.29167Z" fill="#F59C00"/>
<path d="M29.0625 27.8646C28.6979 27.8646 28.4375 27.6042 28.4375 27.2396C28.4375 22.0833 31.9792 21.3542 34.0625 21.3542H36.6667C37.0313 21.3542 37.2917 21.5104 37.2917 21.875C37.2917 22.2396 37.0313 22.3958 36.6667 22.3958H34.0625C31.1458 22.3958 29.6875 24.0625 29.6875 27.1875C29.6875 27.5 29.4271 27.8646 29.0625 27.8646Z" fill="black"/>
</g>
<defs>
<clipPath id="clip0_101_182">
<rect width="50" height="41.6667" fill="white"/>
</clipPath>
</defs>
</svg>
