<svg width="16" height="15" viewBox="0 0 16 15" fill="none" xmlns="http://www.w3.org/2000/svg">
<path d="M13.896 14.625C12.1733 14.4863 10.5447 14.0557 9.00999 13.333C7.47532 12.611 6.12832 11.6667 4.96899 10.5C3.80899 9.33334 2.86099 7.98268 2.12499 6.44801C1.38899 4.91334 0.958324 3.27801 0.832991 1.54201C0.805658 1.20868 0.906324 0.920345 1.13499 0.677012C1.36432 0.433678 1.65266 0.312012 1.99999 0.312012H4.83299C5.13899 0.312012 5.39966 0.395345 5.61499 0.562012C5.83032 0.728678 5.97266 0.965012 6.04199 1.27101L6.54199 3.39601C6.58332 3.61801 6.57632 3.82968 6.52099 4.03101C6.46566 4.23235 6.35466 4.40935 6.18799 4.56201L4.14599 6.56201C4.70132 7.54868 5.37832 8.44134 6.17699 9.24001C6.97566 10.0387 7.86799 10.7087 8.85399 11.25L10.938 9.22901C11.118 9.06234 11.3053 8.95834 11.5 8.91701C11.6947 8.87501 11.896 8.87501 12.104 8.91701L14.208 9.37501C14.514 9.45834 14.7503 9.60768 14.917 9.82301C15.0837 10.0383 15.167 10.2987 15.167 10.604V13.479C15.167 13.8957 15.021 14.1943 14.729 14.375C14.4377 14.5557 14.16 14.639 13.896 14.625ZM3.33299 4.91701L4.79199 3.50001L4.45799 2.04201H2.60399C2.67332 2.54201 2.76699 3.03135 2.88499 3.51001C3.00299 3.98935 3.15232 4.45834 3.33299 4.91701ZM10.521 12.104C10.993 12.2847 11.472 12.4307 11.958 12.542C12.4447 12.6527 12.938 12.7497 13.438 12.833V10.979L11.979 10.667L10.521 12.104Z" fill="#333333"/>
</svg>
