<svg width="32" height="28" viewBox="0 0 32 28" fill="none" xmlns="http://www.w3.org/2000/svg">
	<g clip-path="url(#clip0_184_3367)">
		<path d="M32 26.5156C32 27.3351 31.3302 27.9997 30.5043 27.9997H1.49536C0.66944 28 0 27.3354 0 26.5156C0 26.2485 0.07104 25.9983 0.1952 25.7821L0.1984 25.7764L14.6899 0.76206C14.9456 0.307364 15.4352 0 15.9968 0C16.5584 0 17.048 0.307364 17.3037 0.76206L31.7878 25.7538C31.9226 25.9764 32 26.2371 32 26.5156Z" fill="#E70029"/>
		<path d="M28.7747 25.2165C28.7747 25.5054 28.5385 25.7394 28.2473 25.7394H3.76222C3.47102 25.7394 3.23486 25.5054 3.23486 25.2165C3.23486 25.1292 3.25662 25.0463 3.29502 24.9736L3.31454 24.9396L15.5328 3.81973L15.5453 3.79782C15.6374 3.64604 15.8054 3.54443 15.9971 3.54443C16.1907 3.54443 16.3603 3.64826 16.4521 3.8029L16.4608 3.81814L28.7069 24.959C28.7501 25.0349 28.7747 25.1228 28.7747 25.2165Z" fill="white"/>
		<path d="M14.558 20.26C14.558 20.3365 14.5375 20.4083 14.5023 20.4705L12.2108 24.4199L12.2089 24.4234L12.1858 24.4631L12.1849 24.465C12.0319 24.7104 11.7577 24.8743 11.4457 24.8743C10.9666 24.8743 10.5775 24.4885 10.5775 24.0128C10.5775 23.8648 10.6153 23.7258 10.6812 23.6038L10.6822 23.6019L12.6678 20.0984L12.461 18.0776L14.415 19.1855L14.5516 20.1882L14.5558 20.2197V20.2203C14.557 20.2336 14.558 20.247 14.558 20.26Z" fill="black"/>
		<path d="M18.2448 24.9376H27.7004L24.406 19.2488C23.7939 19.8061 23.5366 20.8974 22.7798 21.6826L18.9737 19.4965L18.9731 19.4939L17.5241 13.963L17.422 13.7702L15.8803 12.1458L15.8796 12.1454L15.5654 12.0105H12.6195L12.2451 12.2251L12.2448 12.2255L10.2608 15.515L10.254 15.5261C10.1827 15.6452 10.1417 15.784 10.1417 15.9326C10.1417 16.3736 10.502 16.7315 10.9462 16.7315C11.2502 16.7315 11.5145 16.5644 11.6515 16.3177L11.6569 16.3079L11.8304 15.9919L12.1939 16.2098L12.75 16.5429L12.4137 17.1763L12.4118 17.1795C12.3798 17.2392 12.3616 17.3081 12.3616 17.3805C12.3616 17.5348 12.4435 17.6701 12.567 17.7456V17.746L12.5696 17.7472L16.4928 20.075V24.0133C16.4928 24.4886 16.8812 24.8747 17.3609 24.8747C17.8406 24.8747 18.2294 24.4889 18.2294 24.0133L18.1936 20.4922C18.4985 20.4922 18.7641 20.3236 18.9004 20.075L22.3587 22.044C22.1193 22.2113 21.8387 22.3504 21.5036 22.4472C19.2556 23.2144 18.2448 24.9376 18.2448 24.9376ZM13.0512 16.0386L12.1104 15.4906L13.2259 13.5054L14.5747 13.5092L13.0512 16.0386ZM15.2873 17.2817L16.35 15.4407L17.1033 18.3048L15.2873 17.2817Z" fill="black"/>
		<path d="M12.6188 12.0105L12.2444 12.2251C12.3193 12.0972 12.4591 12.0105 12.6188 12.0105Z" fill="black"/>
		<path d="M15.8793 12.1454L15.5651 12.0105C15.6886 12.0105 15.8006 12.0623 15.8793 12.1454Z" fill="black"/>
		<path d="M17.5238 13.9628L17.4218 13.77C17.465 13.8167 17.4979 13.8726 17.5168 13.9351L17.5238 13.9628Z" fill="black"/>
		<path d="M17.9356 13.1278C18.7677 13.1278 19.4422 12.4585 19.4422 11.6328C19.4422 10.8072 18.7677 10.1379 17.9356 10.1379C17.1036 10.1379 16.4291 10.8072 16.4291 11.6328C16.4291 12.4585 17.1036 13.1278 17.9356 13.1278Z" fill="black"/>
	</g>
	<defs>
		<clipPath id="clip0_184_3367">
			<rect width="32" height="28" fill="white"/>
		</clipPath>
	</defs>
</svg>
