<?xml version="1.0" encoding="utf-8"?>
<!-- Generator: Adobe Illustrator 17.1.0, SVG Export Plug-In . SVG Version: 6.00 Build 0)  -->
<!DOCTYPE svg PUBLIC "-//W3C//DTD SVG 1.1//EN" "http://www.w3.org/Graphics/SVG/1.1/DTD/svg11.dtd">
<svg version="1.1" id="Слой_2" xmlns="http://www.w3.org/2000/svg" xmlns:xlink="http://www.w3.org/1999/xlink" x="0px" y="0px"
	 viewBox="0 0 80 80" style="enable-background:new 0 0 80 80;" xml:space="preserve">
<g id="экскаватор">
	<ellipse style="fill:#CCCCCC;" cx="33" cy="66" rx="33" ry="2"/>
	<rect x="6" y="48" style="fill:#FDCA00;" width="40" height="6"/>
	<path d="M12,54c2.2,0,4,1.8,4,4c0,2.2-1.8,4-4,4c-2.2,0-4-1.8-4-4C8,55.8,9.8,54,12,54 M12,50c-4.4,0-8,3.6-8,8c0,4.4,3.6,8,8,8
		s8-3.6,8-8C20,53.6,16.4,50,12,50L12,50z"/>
	<path d="M46,54c2.2,0,4,1.8,4,4c0,2.2-1.8,4-4,4c-2.2,0-4-1.8-4-4C42,55.8,43.8,54,46,54 M46,50c-4.4,0-8,3.6-8,8c0,4.4,3.6,8,8,8
		s8-3.6,8-8C54,53.6,50.4,50,46,50L46,50z"/>
	<g>
		<circle style="fill:#CCCCCC;" cx="12" cy="58" r="2"/>
	</g>
	<path style="fill:#666666;" d="M12,54c2.2,0,4,1.8,4,4s-1.8,4-4,4s-4-1.8-4-4S9.8,54,12,54 M12,52c-3.3,0-6,2.7-6,6
		c0,3.3,2.7,6,6,6c3.3,0,6-2.7,6-6C18,54.7,15.3,52,12,52L12,52z"/>
	<path style="fill:#666666;" d="M46,54c2.2,0,4,1.8,4,4s-1.8,4-4,4s-4-1.8-4-4S43.8,54,46,54 M46,52c-3.3,0-6,2.7-6,6
		c0,3.3,2.7,6,6,6c3.3,0,6-2.7,6-6C52,54.7,49.3,52,46,52L46,52z"/>
	<g>
		<circle style="fill:#CCCCCC;" cx="46" cy="58" r="2"/>
	</g>
	<path style="fill:#333333;" d="M0,45v2c0,0.6,0.4,1,1,1h48c0.6,0,1-0.4,1-1v-2c0-0.6-0.4-1-1-1H1C0.4,44,0,44.4,0,45z"/>
	<path d="M36.9,22H19.1c-0.6,0-1.1,0.5-1.1,1.1v0.8c0,0.6,0.5,1.1,1.1,1.1H20V44h18V23.1C38,22.5,37.5,22,36.9,22z M28,26v13
		c0,0.6-0.5,1.1-1.1,1.1H24c-0.6,0-1.1-0.5-1.1-1.1V26c-0.2,0.2,0.4-0.8,1.1-1.1h2.9C27.5,24.9,28,25.4,28,26z M34.1,40h-3
		c-0.6,0-1.1-0.5-1.1-1.1V26c0-0.6,0.5-1.1,1.1-1.1h3c0.6,0,1.1,0.5,1.1,1.1v13C34.6,39.7,33.8,40.3,34.1,40z"/>
	<polygon style="fill:#333333;" points="58,18 53,18 53,16 58,15 	"/>
	<polygon style="fill:#333333;" points="78,16 74,16 74,13 78,12 	"/>
	<polygon style="fill:#FDCA00;" points="52,23 73,20 78,14 52,17 	"/>
	<polygon style="fill:#F59C00;" points="52,23 52,17 46,19 	"/>
	<polygon style="fill:#FDCA00;" points="20,44 2,44 6,36 20,36 	"/>
	<path style="fill:#F59C00;" d="M21.4,52.5l3,3.7c0.4,0.5,1,0.8,1.6,0.8H32c0.6,0,1.2-0.3,1.6-0.8l3-3.7c0.3-0.4,0.4-0.8,0.4-1.3V48
		H21v3.3C21,51.8,21.2,52.2,21.4,52.5z"/>
	<circle style="fill:#333333;" cx="73" cy="43" r="2"/>
	<path style="fill:#F59C00;" d="M56,35.9v7.5c0,0.1,0,0.2,0.1,0.3l1.9,5c0.1,0.3,0.3,0.5,0.7,0.6l5.1,1.5c0.4,0.1,0.8,0,1.1-0.2
		l6.9-6.3c0.5-0.4,0.4-1.1-0.2-1.5l-13.9-7.9C56.9,34.8,56,35.2,56,35.9z"/>
	<polygon style="fill:#FDCA00;" points="46,19 38,31 38,44 39,44 52,23 	"/>
	<polygon style="fill:#FDCA00;" points="78,14.1 73,20 72,42 74,42 80,19.1 	"/>
	<polygon style="fill:#F59C00;" points="78,14 73,20 80,19.1 	"/>
	<rect x="18" y="36" style="fill:#F59C00;" width="2" height="8"/>
</g>
</svg>
