<svg width="37" height="36" viewBox="0 0 37 36" fill="none" xmlns="http://www.w3.org/2000/svg">
    <rect x="0.799805" width="36" height="36" rx="8" fill="#32DAFF"/>
    <g clip-path="url(#clip0_7_4967)">
        <path d="M19.9248 7.12546C19.9248 6.00983 18.4642 5.57343 17.8553 6.51421C13.3881 13.418 19.1748 17.1905 19.1748 19.5C19.1748 20.5341 18.3339 21.375 17.2998 21.375C16.2658 21.375 15.4248 20.5341 15.4248 19.5V14.5373C15.4248 13.6284 14.4001 13.0955 13.6562 13.6148C11.2412 15.2991 9.7998 18.06 9.7998 21C9.7998 25.9627 13.8372 30 18.7998 30C23.7625 30 27.7998 25.9627 27.7998 21C27.7998 13.0176 19.9248 11.9601 19.9248 7.12546ZM18.7998 27.75C15.0779 27.75 12.0498 24.7219 12.0498 21C12.0498 19.6566 12.4511 17.9667 13.1748 16.875V19.5C13.1748 21.7744 15.0254 23.625 17.2998 23.625C19.5742 23.625 21.4248 21.7744 21.4248 19.5C21.4248 16.4873 17.2998 13.875 18.4248 9.74999C20.2998 13.875 25.5498 15.458 25.5498 21C25.5498 24.7219 22.5217 27.75 18.7998 27.75Z" fill="white"/>
    </g>
    <defs>
        <clipPath id="clip0_7_4967">
            <rect width="24" height="24" fill="white" transform="translate(6.7998 6)"/>
        </clipPath>
    </defs>
</svg>
