<?xml version="1.0" encoding="utf-8"?>
<!-- Generator: Adobe Illustrator 17.1.0, SVG Export Plug-In . SVG Version: 6.00 Build 0)  -->
<!DOCTYPE svg PUBLIC "-//W3C//DTD SVG 1.1//EN" "http://www.w3.org/Graphics/SVG/1.1/DTD/svg11.dtd">
<svg version="1.1" id="Слой_2" xmlns="http://www.w3.org/2000/svg" xmlns:xlink="http://www.w3.org/1999/xlink" x="0px" y="0px"
	 viewBox="0 0 80 80" style="enable-background:new 0 0 80 80;" xml:space="preserve">
<g id="мусоровоз">
	<ellipse style="fill:#CCCCCC;" cx="42" cy="59" rx="38" ry="2"/>
	<path d="M66,51c1.1,0,2,0.9,2,2s-0.9,2-2,2c-1.1,0-2-0.9-2-2S64.9,51,66,51 M66,47c-3.3,0-6,2.7-6,6s2.7,6,6,6c3.3,0,6-2.7,6-6
		S69.3,47,66,47L66,47z"/>
	<path d="M26,51c1.1,0,2,0.9,2,2s-0.9,2-2,2c-1.1,0-2-0.9-2-2S24.9,51,26,51 M26,47c-3.3,0-6,2.7-6,6s2.7,6,6,6c3.3,0,6-2.7,6-6
		S29.3,47,26,47L26,47z"/>
	<path style="fill:#333333;" d="M55,55H37c-0.6,0-1-0.4-1-1v-5h20v5C56,54.6,55.6,55,55,55z"/>
	<path style="fill:#FDCA00;" d="M78,51V37c0-1.1-0.9-2-2-2h0l-4-8v0c0-1.1-0.9-2-2-2h-8h-2c-1.1,0-2,0.9-2,2v2l-2,2v10v8h4l2-2h4h4
		l2,2l2,2H78z M62,35v-8h8l4,8H62z"/>
	<path style="fill:#F59C00;" d="M74,49l2,2h-2l-2-2l-2-2h2L74,49z M72,27h-2l4,8h2L72,27z M58,31l2-2v-4h0c-1.1,0-2,0.9-2,2v2l-2,2
		v10v8h2v-8V31z"/>
	<path style="fill:#F59C00;" d="M44,19H18L0,27.2v19.5L2,51h8l6-8h2h26h8V29l2-2v-6.1c0-1.1-0.9-1.9-1.9-1.9H44z"/>
	<polygon style="fill:#F2F2F2;" points="42,19 42,30 32,30 32,19 30,19 30,30 20,30 20,19 18,19 18,43 20,43 20,32 30,32 30,43 
		32,43 32,32 42,32 42,43 44,43 44,32 44,30 44,19 	"/>
	<path style="fill:#333333;" d="M79,55h-4c-0.6,0-1-0.4-1-1v-3h5c0.6,0,1,0.4,1,1v2C80,54.6,79.6,55,79,55z"/>
	<rect x="16" y="43" style="fill:#333333;" width="40" height="3"/>
	<rect x="18" y="46" style="fill:#FDCA00;" width="38" height="3"/>
	<rect x="62" y="37" style="fill:#333333;" width="4" height="2"/>
	<g>
		<polygon style="fill:#FDCA00;" points="20,21 28,21 28,30 30,30 30,21 30,19 20,19 		"/>
		<polygon style="fill:#FDCA00;" points="32,21 40,21 40,30 42,30 42,21 42,19 32,19 		"/>
		<polygon style="fill:#FDCA00;" points="20,34 28,34 28,43 30,43 30,34 30,32 20,32 		"/>
		<polygon style="fill:#FDCA00;" points="32,34 40,34 40,43 42,43 42,34 42,32 32,32 		"/>
		<polygon style="fill:#FDCA00;" points="0,29 16,22 16,43 18,43 18,19 0,27.2 		"/>
		<path style="fill:#FDCA00;" d="M44,19v2h8v5l-2,2v15h2V29l2-2v-6c0-1.1-0.9-2-2-2H44z"/>
	</g>
	<path style="fill:#666666;" d="M26,51c1.1,0,2,0.9,2,2s-0.9,2-2,2s-2-0.9-2-2S24.9,51,26,51 M26,49c-2.2,0-4,1.8-4,4s1.8,4,4,4
		s4-1.8,4-4S28.2,49,26,49L26,49z"/>
	<path style="fill:#666666;" d="M66,51c1.1,0,2,0.9,2,2s-0.9,2-2,2s-2-0.9-2-2S64.9,51,66,51 M66,49c-2.2,0-4,1.8-4,4s1.8,4,4,4
		s4-1.8,4-4S68.2,49,66,49L66,49z"/>
</g>
</svg>
